<?xml version="1.0" standalone="no"?>
<!DOCTYPE svg PUBLIC "-//W3C//DTD SVG 1.1//EN" "http://www.w3.org/Graphics/SVG/1.1/DTD/svg11.dtd" >
<svg>
<metadata>
Created by FontForge 20120731 at Tue Jan 10 04:53:58 2023
 By ffonts
@delipensil
</metadata>
<defs>
<font id="AgokaFamilyRegular" horiz-adv-x="0" >
  <font-face 
    font-family="Agoka Family"
    font-weight="400"
    font-stretch="normal"
    units-per-em="1000"
    panose-1="0 0 0 0 0 0 0 0 0 0"
    ascent="800"
    descent="-200"
    x-height="583.621"
    cap-height="1038.18"
    bbox="-209.999 -499 1762.51 1134.67"
    underline-thickness="0"
    underline-position="0"
    unicode-range="U+000A-F004"
  />
<missing-glyph horiz-adv-x="527" 
d="M50 700h427v-700h-427v700zM78 680l185 -309l186 309h-371zM251 350l-180 300v-601zM264 329l-185 -308h370zM276 350l181 -303v605z" />
    <glyph glyph-name="ok.liga" unicode="ok" horiz-adv-x="1271" 
d="M1252.22 14.3604l23.1836 -4.66992h-161.24c-42.9102 0 -83.8105 18.1797 -112.561 50.04c-44.0498 53.54 -61.7803 121.1 -104.931 158.58c-13.3896 11 -29.5996 19.29 -49.9297 24.04c-2.79004 -0.200195 -5.58984 -0.360352 -8.37988 -0.540039v-127.68
c0 -29.2803 9.88965 -54 29.6797 -74.1699c19.7803 -20.1904 45.4902 -30.2705 77.1602 -30.2705h-143.56c-31.6602 0 -57.7598 10.0801 -78.3301 30.2705c-20.5801 20.1699 -30.8604 44.8896 -30.8604 74.1699l-0.639648 130.5
c-22.04 2.30957 -43.54 5.42969 -64.4697 9.2793c-17.2998 -96.2305 -79.9502 -182.66 -175.681 -226.2c-154.86 -70.4297 -337.511 -1.98926 -407.94 152.881c-70.4404 154.86 -1.99023 337.511 152.88 407.951c154.87 70.4297 337.51 1.98926 407.95 -152.881
c25.6104 -56.3301 32.7803 -116.32 24.1699 -173.271c20.4697 -3.75977 41.5 -6.7998 63.0596 -9.06934l-3.83984 790.13c0 -120.44 150.43 -84.3105 150.43 -295.771v-263.65c67.3203 112.28 298.73 177.42 365.62 126.37
c103.02 -86.9805 33.6094 -316.841 -283.351 -358.091c-5.99023 -0.769531 -34.1104 -4.0791 -59.8506 -7.19922c268.29 -18.5098 294.39 -230.75 391.43 -230.75zM479.2 378.66c-59.8604 131.59 -161.729 218.011 -243.568 213.971
c-10.7305 -3.16992 -18.3203 -9.07031 -22.5107 -17.75c-9.7998 -20.29 -0.179688 -54.9004 25.75 -92.5801c49.6396 -72.1504 144.25 -143.71 270.51 -188.29c-7.24023 27.7998 -17.2705 56.2695 -30.1807 84.6494zM449.552 32.3516
c67.7803 30.8301 90.1895 134.381 62.2598 251.73c-130.8 45.1299 -228.85 118.95 -280.04 193.33c-28.1104 40.8604 -37.7305 77.75 -26.4102 101.21c1.61035 3.33984 4.03027 6.89941 7.31055 10.2891c-4.75977 -1.33008 -9.42969 -2.9502 -13.9697 -5.02051
c-85.6396 -38.9404 -98.9199 -193.99 -29.6504 -346.3s194.85 -244.199 280.5 -205.239zM960.461 567.723c-57.8301 -16.5703 -98.082 -49.7803 -122.092 -101.49v-215.92c6.90039 0.429688 13.8008 0.859375 20.7705 1.43945l0.0302734 -0.450195
c229.68 20.7305 319.54 149.591 291.04 225.411c-26.7197 61.0195 -100.069 107.97 -189.749 91.0098z" />
    <glyph glyph-name="al.liga" unicode="al" horiz-adv-x="906" 
d="M846.089 37.4004c19.7695 -20.1904 45.4912 -30.2715 77.1416 -30.2715h-143.56c-31.6602 0 -57.7598 10.0801 -78.3301 30.2705c-20.5801 20.1699 -30.8604 44.8896 -30.8604 74.1797l-4.32031 890.78c-6.91992 -55.3896 -23.8799 -162.989 -60.5195 -268.899
c-24.7998 -71.6396 -54.5801 -130.84 -88.7598 -177.189c15.8398 -14.29 29.6699 -31.1299 40.4004 -50.9395c17.7803 -27.2998 26.6807 -58.75 26.6807 -94.3701v-306.23c0 -29.2803 9.88965 -54 29.6895 -74.1699c19.7695 -20.1904 45.4795 -30.2803 77.1494 -30.2803
h-143.56c-31.6602 0 -57.7598 10.0898 -78.3301 30.2803c-20.5801 20.1699 -30.8604 44.8896 -30.8604 74.1699l6.4502 273.09s-86.2598 -8.55957 -127.17 -21.5791c-229.32 -79.9697 -206.811 -332.63 13.7793 -291.63c0 0 -204.05 -105.46 -280.76 -46.9102
c-103.02 86.9805 -33.6895 315.141 283.28 356.371c11.54 1.5 105.78 14.7695 105.78 14.7695l-1.21973 88.7695c-41.4404 -28.7803 -87.1904 -43.4805 -136.681 -43.4805c-3.36035 0 -6.73047 0.0595703 -10.1104 0.199219c-36.3096 1.4502 -69.4297 17 -90.8301 42.6602
c-16.6299 19.9297 -22.8799 39.4102 -18.5801 57.9004c5.88965 25.3398 29.7998 41.1797 40.8398 47.2998c15.2803 11.1504 35.96 21.4102 63.8701 28.7002c71.79 15.7695 161.64 2.20996 223.38 -48.75c126.39 173.36 151.27 474.761 151.6 479.07l8.59961 -0.660156
c-0.0302734 -0.339844 -0.680664 -8.37988 -2.23047 -22.2695c17.8701 -93.9902 148.36 -76.1807 148.36 -273.171v-633.53c0 -29.29 9.88965 -54.0098 29.6797 -74.1797zM291.741 442.949c3.30957 -0.139648 6.62891 -0.200195 9.87891 -0.200195
c52.6504 0 97.7402 17.0303 136.391 45.2998c-0.240234 30.3496 -10.1104 55.3096 -29.6406 74.8496c-42.8701 39.5 -155.8 34.9004 -202.979 -4.5293c-6.7002 -6.79004 -12.6807 -15.3096 -15.0303 -25.46c-3.62988 -15.71 2.02051 -32.6602 16.8105 -50.3906
c19.8496 -23.8096 50.6699 -38.2197 84.5703 -39.5693z" />
    <glyph glyph-name="an.liga" unicode="an" horiz-adv-x="1358" 
d="M1365.1 0l-105.394 0.0117188v1.30957h-41.5303c-55.3496 0 -100.27 44.7402 -100.42 100.101c-0.129883 50.5098 -0.339844 110.319 -0.609375 154.989c0 192.35 -62.9297 297.27 -152.149 322.689c-41.2695 11.7598 -90.7695 7.95996 -148.14 -18.0996
c-12.4404 -7.30957 -24.6104 -15.5693 -36.5508 -24.6895c21.9297 -30.3799 38.3301 -73.1104 38.3301 -142.841v-289.021c0 -29.2803 9.87988 -54 29.6797 -74.1797c19.7695 -20.1797 45.4795 -30.2695 77.1494 -30.2695h-143.56
c-31.6602 0 -57.7598 10.0898 -78.3301 30.2695c-20.5801 20.1797 -30.8604 44.8994 -30.8604 74.1797l-2.48047 322.28c-26.8301 -31.9102 -53.3301 -66.2197 -80.2197 -101.069c-1.00977 -1.30957 -2.04004 -2.62988 -3.05957 -3.9502v-214.5
c0 -29.2803 9.88965 -54 29.6895 -74.1699c19.7695 -20.1904 45.4795 -30.2803 77.1494 -30.2803h-143.56c-31.6602 0 -57.7598 10.0898 -78.3301 30.2803c-20.5801 20.1699 -30.8604 44.8896 -30.8604 74.1699l0.530273 41.7305
c-72.9502 -73.0098 -154.88 -127.87 -256.56 -137.57c-50.1201 -11.7598 -101.04 -14.5498 -131.67 8.83008c-103.02 86.9697 -33.6895 315.13 283.271 356.37c115.54 24.3701 104.44 112.84 104.44 112.84c0 30.8701 -13.2402 74.6504 -33 94.4502
c-19.0195 17.5195 -51.8496 26.3193 -86.5996 27.3096c-105.99 -4.65039 -151.03 -102.54 -153.95 -154.79l-81.0498 28.2305c18.4805 77.1201 151.03 140.42 268.59 134.939c79.6299 -1.73047 164.25 -36.0605 205.24 -111.74
c17.7803 -27.29 26.6807 -58.75 26.6807 -94.3604v-77.6504c27.8203 36.0596 55.2607 71.46 83.1709 104.17l-1.91992 249.26c0 -76.5898 60.8203 -89.9297 105.11 -143.83c232.45 166.54 399.811 47.8096 462.601 -114.421
c9.66992 -24.96 23.5996 -93.0898 23.5996 -208.149c0.450195 -47.6797 0.860352 -100.04 1.24023 -141.93c3.98047 -19.21 12.9609 -36.1299 27.1807 -50.6299c19.7695 -20.1797 45.4795 -30.2695 77.1494 -30.2695zM322.085 65.3018
c43.0996 24.8896 82.5098 58.1406 119.64 96.0703l3.66992 291.43c-3.66016 -21.5498 -24.4697 -63.4297 -125.069 -94.0801c-225.03 -78.46 -207.42 -323.04 1.75977 -293.42z" />
    <glyph glyph-name="am.liga" unicode="am" horiz-adv-x="1734" 
d="M1762.51 1.51562l-105.391 0.0166016v1.30957h-41.5312c-55.3555 0 -100.272 44.7441 -100.419 100.1c-0.137695 50.5146 -0.344727 110.323 -0.611328 154.99c0 192.354 -62.9346 297.268 -152.156 322.693c-50.9287 14.5127 -114.354 5.46094 -189.761 -40.1709
c27.3975 -30.998 49.0938 -68.1631 64.4941 -107.955c9.66406 -24.9521 23.5996 -93.0889 23.5996 -208.141c0.448242 -47.6816 0.861328 -100.04 1.23145 -141.934c3.98828 -19.2158 12.9629 -36.1318 27.1826 -50.627c19.7754 -20.1885 45.4854 -30.2744 77.1553 -30.2744
h-105.371v1.30957h-41.5312c-55.3555 0 -100.272 44.7441 -100.419 100.1c-0.137695 50.5146 -0.344727 110.323 -0.611328 154.99c0 192.354 -62.9346 297.268 -152.156 322.693c-50.4287 14.3662 -113.105 5.59863 -187.521 -38.8525
c23.3584 -30.5928 41.1611 -74.0361 41.1611 -146.781v-289.025c0 -29.2842 9.8877 -54.0029 29.6807 -74.1748c19.7754 -20.1885 45.4854 -30.2744 77.1553 -30.2744h-143.561c-31.6611 0 -57.7588 10.0859 -78.3262 30.2744
c-20.585 20.1719 -30.8604 44.8906 -30.8604 74.1748l-2.60938 337.809c-30.2744 -35.4941 -57.7236 -73.9082 -84.3721 -112.692v-226.349c0 -29.2842 9.8877 -54.0029 29.6807 -74.1748c19.7754 -20.1885 45.4854 -30.2744 77.1553 -30.2744h-143.561
c-31.6611 0 -57.7588 10.0859 -78.3262 30.2744c-20.585 20.1719 -30.8604 44.8906 -30.8604 74.1748l0.413086 33.1338c-39.8008 -40.4297 -84.4766 -72.0137 -138.807 -88.0771c-60.2393 -26.752 -191.233 -76.4053 -249.311 -32.0742
c-103.02 86.9736 -33.6934 315.131 283.272 356.378c115.543 24.375 104.44 112.848 104.44 112.848c0 30.8691 -13.2383 74.6484 -33.0049 94.4414c-19.0176 17.5273 -51.8506 26.3301 -86.5957 27.3115c-105.991 -4.64258 -151.037 -102.537 -153.948 -154.783
l-81.0566 28.2246c18.4834 77.1113 151.028 140.417 268.595 134.931c79.627 -1.73145 164.249 -36.0459 205.247 -111.728c17.7773 -27.2949 26.6836 -58.749 26.6836 -94.3633v-64.709c26.502 38.2764 53.9258 76.001 84.2695 110.737l-1.80859 233.756
c0 -75.3809 58.8613 -89.5752 102.942 -141.373c21.3945 14.8057 44.3994 27.8203 69.2305 38.7676c140.942 72.2969 253.367 36.6045 326.741 -42.9619c233.687 169.063 401.983 50.0928 464.987 -112.692c9.66406 -24.9521 23.5996 -93.0889 23.5996 -208.141
c0.448242 -47.6816 0.861328 -100.04 1.23145 -141.934c3.9873 -19.2158 12.9619 -36.1318 27.1816 -50.627c19.7754 -20.1885 45.4854 -30.2744 77.1553 -30.2744zM310.158 61.3408c51.0664 17.4238 93.416 49.2822 131.468 89.2637l3.77246 299.714
c-3.66016 -21.5498 -24.4688 -63.4258 -125.077 -94.0791c-220.689 -76.957 -208.046 -313.735 -10.1631 -294.898z" />
    <glyph glyph-name="ar.liga" unicode="ar" horiz-adv-x="1153" 
d="M1073.5 601.887c45.0713 -14.9775 80.3711 -40.7266 106.787 -73.1797l-104.596 -100.857h-3.38477c-34.1162 77.6289 -105.285 128.471 -215.351 99.0312c-14.5215 -8.13965 -27.415 -17.9502 -38.7412 -29.4229l3.53125 -274.942h-1.2832v-36.752
c0 -211.457 -150.434 -175.325 -150.434 -295.769l0.525391 108.102h-119.315c-31.6611 0 -57.7588 10.0859 -78.3262 30.2744c-20.585 20.1719 -30.8604 44.8906 -30.8604 74.1748l0.361328 28.793c-76.2422 -63.7188 -158.143 -111.271 -250.731 -123.269
c-51.9277 -12.8848 -105.552 -16.8037 -137.334 7.45898c-103.02 86.9648 -33.6943 315.131 283.271 356.37c115.543 24.375 104.44 112.848 104.44 112.848c0 30.8691 -13.2383 74.6484 -33.0049 94.4414c-19.0176 17.5273 -51.8506 26.3301 -86.5957 27.3115
c-105.991 -4.64258 -151.037 -102.537 -153.948 -154.783l-81.0566 28.2246c18.4834 77.1201 151.028 140.417 268.595 134.939c79.627 -1.74023 164.249 -36.0547 205.247 -111.736c17.7773 -27.2949 26.6836 -58.749 26.6836 -94.3633v-122.752
c13.6777 14.7803 27.2773 29.6553 40.834 44.4785c14.7021 16.0801 29.0342 31.6953 43.2715 47.0439v137.316c0 29.2842 -9.8877 54.0029 -29.6807 74.1748c-19.7754 20.1885 -45.4854 30.2744 -77.1553 30.2744h143.552c31.6699 0 57.7676 -10.0859 78.3438 -30.2744
c20.585 -20.1719 30.8604 -44.8906 30.8604 -74.1748l0.0605469 -4.82324c5.52051 5.03906 11.3516 9.74219 17.5439 14.0918c26.2695 23.04 126.008 101.771 237.89 77.75zM324.653 60.8672c41.041 21.7559 80.1514 49.8076 117.91 81.8652l3.8418 305.398
c-3.66016 -21.5498 -24.4688 -63.4258 -125.077 -94.0791c-225.582 -78.6621 -207.322 -324.243 3.3252 -293.185zM617.665 28.3691c14.4443 -14.7627 32.1094 -24.0566 52.918 -28.0273l1.24902 257.14h0.258789v107.387
c-12.1533 -13.1523 -24.3926 -26.4854 -36.916 -40.1797c-15.6582 -17.1221 -31.3682 -34.2881 -47.1904 -51.3154v-170.829c0 -29.2842 9.8877 -54.0029 29.6807 -74.1748z" />
    <glyph glyph-name=".notdef" horiz-adv-x="527" 
d="M50 700h427v-700h-427v700zM78 680l185 -309l186 309h-371zM251 350l-180 300v-601zM264 329l-185 -308h370zM276 350l181 -303v605z" />
    <glyph glyph-name=".null" 
 />
    <glyph glyph-name=".null" 
 />
    <glyph glyph-name="controlLF" unicode="&#xa;" 
 />
    <glyph glyph-name="controlCR" unicode="&#xd;" 
 />
    <glyph glyph-name="space" unicode=" " horiz-adv-x="309" 
 />
    <glyph glyph-name="exclam" unicode="!" horiz-adv-x="246" 
d="M198.986 216.928h-151.132v848.522h151.132v-848.522zM197.938 83.416l-76.4688 -76.4688l-76.4688 76.4688l76.4688 76.4688z" />
    <glyph glyph-name="numbersign" unicode="#" horiz-adv-x="1056" 
d="M811.078 721.975l-114.34 -360.099l234.169 -1.16309l-0.103516 -20.4648l-240.551 1.19727l-110.452 -347.852l-19.5088 6.19238l108.515 341.771l-418.599 2.08398l-111.142 -350.048l-19.5088 6.19238l109.212 343.958l-185.772 0.921875l0.103516 20.4648
l192.155 -0.956055l113.407 357.171l-213.136 -0.292969l-0.0253906 20.4648l219.665 0.301758l106.603 335.75l19.5088 -6.19238l-104.63 -329.531l419.442 0.577148l106.422 335.147l19.5088 -6.19238l-104.44 -328.929l195.127 0.266602l0.0253906 -20.4648z
M675.301 361.988l114.294 359.961l-419.442 -0.577148l-113.45 -357.3z" />
    <glyph glyph-name="dollar" unicode="$" horiz-adv-x="878" 
d="M845.931 710.054l-148.608 3.94336c27.6221 87.4561 -24.0557 273.307 -201.715 348.722c-15.1592 3.54883 -30.4648 6.35645 -45.8652 8.37207v-374.319c184.317 -42.9102 308.619 -116.499 360.013 -213.791c42.2295 -79.9111 29.2842 -185.325 8.87988 -234.746
l-1.32617 -3.18652l-0.464844 0.689453c-35.8213 -76.4316 -105.526 -147.247 -181.045 -182.879c-40.2568 -18.8965 -82.8477 -29.5244 -126.007 -33.1768c-19.9561 -1.68848 -40.0332 -1.86035 -60.0586 -0.671875v-41.041h-8.61328v41.6865
c-19.6807 1.55078 -39.2842 4.41016 -58.6719 8.44922c-197.409 25.2275 -364.319 135.904 -367.446 302.936l147.635 17.5791c-13.6855 -84.3467 53.0996 -243.281 213.31 -304.184c21.4893 -4.90039 43.2803 -8.31934 65.1748 -10.0596v472.171
c-172.38 37.0186 -292.6 108.334 -347.688 206.479c-36.2949 64.666 -54.7871 225.005 139.357 331.918c65.7598 30.8779 137.695 39.543 208.33 31.877v47.8447h8.61328v-48.7842c45.6836 -5.82227 90.6953 -18.4062 132.977 -36.3389
c15.0898 -7.59668 28.9736 -15.2617 41.8496 -22.9189c141.348 -66.2422 238.64 -180.605 221.371 -316.569zM657.264 443.886c-73.624 37.1562 -151.873 58.8105 -207.53 70.7568v-470.854c61.2295 -3.62598 122.864 5.8916 179.701 32.5742
c15.0811 7.11426 29.9121 15.6924 44.2617 25.4678c100.841 68.7139 92.5039 287.069 -16.4326 342.055zM441.113 698.719l0.00292969 373.432c-68.4814 7.59668 -138.255 -0.791992 -201.982 -30.7139c-0.680664 -0.318359 -1.36133 -0.645508 -2.04199 -0.972656
c-122.52 -59.1104 -128.273 -206.297 -8.04492 -269.93c69.041 -36.5361 142.294 -56.8799 193.713 -67.6807c6.24414 -1.30957 12.2383 -2.75684 18.3535 -4.13477z" />
    <glyph glyph-name="percent" unicode="%" horiz-adv-x="970" 
d="M690.671 653.734c143.854 0 260.456 -147.953 260.456 -330.462s-116.61 -330.462 -260.455 -330.462s-260.455 147.953 -260.455 330.462c0 56.8887 11.335 110.418 31.291 157.16l-308.404 -489.078l-6.43359 4.05664l316.156 501.377
c-47.2246 -60.7129 -112.821 -98.377 -185.368 -98.377c-143.836 0 -260.455 147.953 -260.455 330.462s116.61 330.462 260.455 330.462s260.455 -147.953 260.455 -330.462c0 -65.8203 -15.2275 -127.093 -41.3682 -178.606l328.739 521.325l6.43359 -4.05664
l-312.573 -495.685c45.8291 50.9375 105.81 81.8838 171.526 81.8838zM334.172 414.337c92.8389 16.7432 142.699 171.131 111.374 344.837s-131.968 300.954 -224.798 284.219s-142.699 -171.131 -111.374 -344.837s131.968 -300.954 224.798 -284.219zM747.387 8.73535
c92.8301 16.7432 142.69 171.131 111.374 344.837c-31.3252 173.706 -131.968 300.954 -224.798 284.219s-142.69 -171.131 -111.374 -344.837c31.3252 -173.706 131.968 -300.954 224.798 -284.219z" />
    <glyph glyph-name="ampersand" unicode="&#x26;" horiz-adv-x="1205" 
d="M1126.22 293.238c23.5654 -23.5654 35.3555 -51.8975 35.373 -84.9629c0 -33.082 -11.791 -61.2031 -35.3564 -84.3457c-23.5732 -23.1514 -51.9014 -34.7275 -84.9668 -34.7275c-33.918 0 -62.4443 11.5674 -85.5869 34.7275
c-23.1514 23.1426 -34.7275 51.2637 -34.7275 84.3457c0 11.5674 2.05859 24.3838 6.20117 38.4492c-33.1855 -14.8145 -64.9678 -26.6836 -96.1895 -47.8115c-15.8564 -13.8408 -32.2129 -28.0869 -49.1719 -42.2979c7.1748 -8.91406 58.7832 -72.9258 58.7832 -72.9258
l-0.232422 -0.0947266c24.1426 -29.6367 47.0098 -57.0176 68.5762 -82.0557h-152.717c-9.79297 11.3438 -19.8789 23.2207 -30.2148 35.5283l-0.55957 -0.223633s-3.0752 3.99609 -8.62207 11.2051c-5.58984 6.70996 -11.2314 13.5146 -16.9766 20.4912
c0.275391 0.180664 0.525391 0.378906 0.791992 0.568359c-3.89355 5.07324 -8.17383 10.6543 -12.79 16.6748c-72.3574 -47.2676 -155.86 -82.874 -256.33 -82.874c-14.0049 0 -28.3457 0.714844 -43.0137 2.16211c-15.5635 -2.23047 -31.4629 -3.52246 -47.8105 -3.52246
c-31.4375 0 -63.2539 5.36621 -95.501 16.124c-62.8574 20.6621 -112.253 54.9844 -148.229 102.95c-35.9678 47.9482 -53.9512 101.279 -53.9512 160.002c0 28.1045 3.29004 53.3408 9.92188 75.666c10.7314 42.1689 30.5762 81.0303 59.5332 116.593
c28.9395 35.5459 62.0137 64.9072 99.2305 88.0674c18.8447 11.7139 37.3711 21.2998 55.5791 28.7842c9.33691 6.32227 25.5811 15.3574 51.627 24.4014c-43.2969 84.502 -65.0361 154.878 -65.0361 211.009c0 52.9004 11.5674 97.7734 34.7275 134.576
c23.1348 36.7773 53.5215 64.2783 91.1602 82.4775c37.6211 18.1816 77.0947 27.2852 118.454 27.2852c28.5859 0 55.6904 -4.32324 81.3486 -12.8584c-0.21582 -0.0693359 -0.439453 -0.146484 -0.663086 -0.207031c21.0762 -4.875 124.139 -47.8623 131.417 -170.511
c0 -26.373 -4.85742 -53.7109 -14.2451 -81.9619c-5.81348 -26.8721 -15.8047 -51.9355 -30.0762 -73.8818c-36.0107 -55.3643 -94.9238 -87.5684 -170.373 -93.124c-11.5928 -0.689453 -22.6436 -1.5332 -33.1768 -2.50684
c15.8477 -33.0049 35.167 -68.292 58.043 -105.896c73.4424 -120.779 159.012 -242.765 256.613 -365.938c17.4668 14.6338 34.3135 29.3105 50.6006 43.5303c6.93359 6.05469 13.7637 12.0059 20.5508 17.8799c22.3164 22.4365 44.7705 40.8945 70.2305 60.5488
c38.0264 29.3359 74.416 44.0293 109.152 44.0293h7.18359c2.29102 0.0253906 4.57324 0.0859375 6.87305 -0.0175781c32.876 -0.103516 61.0752 -11.8691 84.5459 -35.3311zM443.553 957.069c-23.1514 -36.8027 -34.7275 -81.667 -34.7363 -134.576
c0 -49.3008 16.7871 -109.592 50.1709 -180.77c11.4385 1.07617 23.4277 2.02344 36.0977 2.78125c72.9346 5.36621 129.841 36.3818 164.517 89.6875c21.5664 33.1514 33.1426 73.6318 34.6152 116.955c2.7041 130.676 -106.784 203.61 -182.397 175.472
c-27.2344 -17.4414 -50.0332 -40.5674 -68.2666 -69.5498zM413.244 11.0664c106.542 -4.4873 194.332 31.6279 269.894 80.834c-74.9756 97.8604 -226.969 297.354 -264.883 355.577c-36.1396 58.1719 -80.29 130.71 -87.6025 144.224
c-2.81641 5.21094 -5.5293 10.3525 -8.19922 15.4688c-2.40332 -0.827148 -4.7373 -1.6543 -6.96777 -2.48145c1.36133 0.292969 2.73926 0.646484 4.10059 0.905273c-98.2998 -87.0859 -182.836 -308.181 -67.6631 -487.614
c35.9678 -47.9658 85.3721 -82.2881 148.221 -102.95c4.38379 -1.45605 8.74219 -2.71387 13.1006 -3.96289z" />
    <glyph glyph-name="quotesingle" unicode="'" horiz-adv-x="213" 
d="M179.554 664.155c9.01758 -13.2207 13.54 -27.8965 13.54 -44.0029c0 -11.6104 -2.90234 -22.9023 -8.70703 -33.8584c-7.10547 -16.7783 -18.3799 -35.3047 -33.8486 -55.6143c-15.4775 -20.3096 -31.9287 -39.1719 -49.3359 -56.5791
c11.6104 14.1768 24.5039 36.751 38.6895 67.7061c-11.6016 -5.16797 -21.9287 -7.73438 -30.9463 -7.73438c-26.4414 0 -48.0342 8.2168 -64.7949 24.6592c-16.7783 16.4424 -25.1504 36.9072 -25.1504 61.4199c0 25.1494 8.37207 45.9414 25.1504 62.3838
c16.752 16.4424 38.3535 24.668 64.7949 24.668c11.6104 0 24.0127 -3.87598 37.2422 -11.6104c13.2119 -7.74316 24.3223 -18.2256 33.3662 -31.4375z" />
    <glyph glyph-name="quotesingle" unicode="&#x2019;" horiz-adv-x="213" 
d="M179.554 664.155c9.01758 -13.2207 13.54 -27.8965 13.54 -44.0029c0 -11.6104 -2.90234 -22.9023 -8.70703 -33.8584c-7.10547 -16.7783 -18.3799 -35.3047 -33.8486 -55.6143c-15.4775 -20.3096 -31.9287 -39.1719 -49.3359 -56.5791
c11.6104 14.1768 24.5039 36.751 38.6895 67.7061c-11.6016 -5.16797 -21.9287 -7.73438 -30.9463 -7.73438c-26.4414 0 -48.0342 8.2168 -64.7949 24.6592c-16.7783 16.4424 -25.1504 36.9072 -25.1504 61.4199c0 25.1494 8.37207 45.9414 25.1504 62.3838
c16.752 16.4424 38.3535 24.668 64.7949 24.668c11.6104 0 24.0127 -3.87598 37.2422 -11.6104c13.2119 -7.74316 24.3223 -18.2256 33.3662 -31.4375z" />
    <glyph glyph-name="quotesingle" unicode="&#x2018;" horiz-adv-x="213" 
d="M179.554 664.155c9.01758 -13.2207 13.54 -27.8965 13.54 -44.0029c0 -11.6104 -2.90234 -22.9023 -8.70703 -33.8584c-7.10547 -16.7783 -18.3799 -35.3047 -33.8486 -55.6143c-15.4775 -20.3096 -31.9287 -39.1719 -49.3359 -56.5791
c11.6104 14.1768 24.5039 36.751 38.6895 67.7061c-11.6016 -5.16797 -21.9287 -7.73438 -30.9463 -7.73438c-26.4414 0 -48.0342 8.2168 -64.7949 24.6592c-16.7783 16.4424 -25.1504 36.9072 -25.1504 61.4199c0 25.1494 8.37207 45.9414 25.1504 62.3838
c16.752 16.4424 38.3535 24.668 64.7949 24.668c11.6104 0 24.0127 -3.87598 37.2422 -11.6104c13.2119 -7.74316 24.3223 -18.2256 33.3662 -31.4375z" />
    <glyph glyph-name="parenleft" unicode="(" horiz-adv-x="492" 
d="M440.963 2.18945c2.36035 -1.23145 4.67383 -2.49023 7.07715 -3.69629h-133.656c-49.1631 0 -94.4756 12.291 -135.956 36.8721s-74.2529 58.1113 -98.3262 100.625c-24.0557 42.4873 -36.1055 88.334 -36.1055 137.497v520.094
c0 49.1631 12.0586 94.4844 36.1064 135.965c24.0732 41.4805 56.8457 74.2441 98.3262 98.3262c41.4805 24.0557 86.793 36.1055 135.956 36.1055h110.711c-34.4688 -4.72852 -66.9053 -15.8311 -97.2656 -33.4355c-41.4805 -24.082 -74.2529 -56.8457 -98.3262 -98.3262
c-24.0557 -41.4883 -36.1055 -86.8008 -36.1055 -135.964v-520.094c0 -49.1631 12.0586 -95.0098 36.1064 -137.497c24.0732 -42.5049 56.8457 -76.0439 98.3262 -100.625c34.9688 -20.7139 72.7021 -32.5908 113.132 -35.8467z" />
    <glyph glyph-name="parenright" unicode=")" horiz-adv-x="492" 
d="M410.937 929.547c24.0469 -41.4805 36.1064 -86.8018 36.1064 -135.965v-520.085c0 -49.1631 -12.0586 -95.0098 -36.1055 -137.497c-24.0732 -42.5137 -56.8457 -76.0439 -98.3262 -100.625s-86.793 -36.8721 -135.956 -36.8721h-133.656
c2.41211 1.20605 4.72852 2.45508 7.08008 3.68652c40.4297 3.24707 78.1631 15.124 113.132 35.8467c41.4805 24.5811 74.2529 58.1113 98.3262 100.625c24.0557 42.4873 36.1055 88.334 36.1055 137.497v520.094c0 49.1631 -12.0586 94.4844 -36.1064 135.965
c-24.0732 41.4805 -56.8457 74.2529 -98.3262 98.3262c-30.3525 17.6045 -62.7891 28.707 -97.2666 33.4355h110.711c49.1631 0 94.4756 -12.0586 135.956 -36.1055c41.4805 -24.082 74.2529 -56.8457 98.3262 -98.3262z" />
    <glyph glyph-name="asterisk" unicode="*" horiz-adv-x="517" 
d="M499.618 850.04v-22.7725h-213.825l151.2 -151.191l-16.1064 -16.0977l-151.191 151.191v-213.816h-22.7725v213.816l-151.191 -151.191l-16.0977 16.0977l151.191 151.191h-213.825v22.7725h213.825l-151.191 151.191l16.0977 16.0977l151.191 -151.191v213.825h22.7725
v-213.825l151.191 151.191l16.1064 -16.0977l-151.2 -151.191h213.825z" />
    <glyph glyph-name="plus" unicode="+" horiz-adv-x="1099" 
d="M561.026 548.562h495.254v-22.7637h-495.254v-495.254h-22.7725v495.254h-495.254v22.7637h495.254v495.254h22.7725v-495.254z" />
    <glyph glyph-name="comma" unicode="," horiz-adv-x="211" 
d="M178.559 132.849c9.01758 -13.2207 13.5391 -27.8965 13.5391 -44.0029c0 -11.6104 -2.90234 -22.9023 -8.70703 -33.8584c-7.10547 -16.7783 -18.3799 -35.3047 -33.8486 -55.6143c-15.4775 -20.3096 -31.9287 -39.1719 -49.3359 -56.5791
c11.6104 14.1768 24.5039 36.751 38.6895 67.7061c-11.6016 -5.16797 -21.9287 -7.73438 -30.9463 -7.73438c-26.4414 0 -48.0342 8.2168 -64.7949 24.6592c-16.7783 16.4424 -25.1504 36.9072 -25.1504 61.4199c0 25.1494 8.37207 45.9414 25.1504 62.3838
c16.752 16.4512 38.3535 24.668 64.7949 24.668c11.6104 0 24.0127 -3.87598 37.2422 -11.6104c13.2041 -7.74316 24.3232 -18.2256 33.3672 -31.4375z" />
    <glyph glyph-name="hyphen" unicode="-" horiz-adv-x="1028" 
d="M1020.28 525.788h-1013.28v22.7725h1013.28v-22.7725z" />
    <glyph glyph-name="period" unicode="." horiz-adv-x="179" 
d="M165.938 62.1973l-76.4688 -76.4688l-76.4688 76.4688l76.4688 76.4688z" />
    <glyph glyph-name="slash" unicode="/" horiz-adv-x="442" 
d="M399.059 1061.9l-336.802 -1060.83l-19.2012 6.0957l336.802 1060.83z" />
    <glyph glyph-name="zero" unicode="0" horiz-adv-x="892" 
d="M445.986 1068.07c230.854 0 417.996 -237.442 417.996 -530.343s-187.151 -530.343 -417.996 -530.343s-417.987 237.442 -417.987 530.343s187.143 530.343 417.987 530.343zM536.999 32.9629c148.987 26.8555 229.002 274.624 178.736 553.399
s-211.784 482.988 -360.763 456.124c-148.979 -26.8555 -229.002 -274.624 -178.736 -553.399s211.784 -482.988 360.763 -456.124z" />
    <glyph glyph-name="one" unicode="1" horiz-adv-x="297" 
d="M246.004 1071.39l0.621094 0.449219v-165.39h-0.629883v-902.93h-149.2v903.83c-45.5303 0.280273 -83.1406 0.510742 -80.6807 0.510742l213.97 152.22l15.9199 12.7598v-1.4502z" />
    <glyph glyph-name="two" unicode="2" horiz-adv-x="896" 
d="M664.756 436.083l181.158 4.9668c-143.397 0 -262.549 -440.553 -441.053 -441.053l-153.707 0.361328c1.35254 0 2.74805 0.128906 4.16016 0.361328h-79.877v-0.223633h-147.437v320.678c0 325.415 853.483 408.168 616.343 665.894
c-92.1074 73.7188 -184.36 78.4043 -251.094 66.1914c-91.8311 -16.7949 -246.503 -105.052 -279.869 -205.151l-6.99414 2.33398c23.4014 70.1953 143.346 184.067 285.537 210.07c80.3154 14.6768 196.659 5.61621 306.182 -113.914
c398.831 -348.273 -522.669 -349.065 -522.669 -721.257v-217.244h97.249c90.2119 58.043 257.097 424.214 392.07 427.986z" />
    <glyph glyph-name="three" unicode="3" horiz-adv-x="862" 
d="M460.832 730.967c203.076 0 367.705 -164.628 367.705 -367.704s-164.628 -367.704 -367.704 -367.704s-367.704 164.628 -367.704 367.704c0 28.207 3.28125 55.6309 9.29297 82.0127l95.9395 95.9395l4.21191 3.78125
c-12.2822 -83.1924 10.4043 -189.941 68.8174 -291.109c99.5918 -172.491 265.142 -263.357 369.771 -202.955c104.621 60.4023 108.704 249.207 9.1123 421.707c-74.752 129.479 -186.669 212.946 -282.092 220.982l-0.947266 -0.680664l-4.38379 6.09766l307.974 221.491
h-627.824l210.044 151.381h628.255l3.16113 2.27344l1.62793 -2.27344h1.06836l-0.680664 -0.53418l2.36816 -3.29004l-90.1084 -64.8037l-106.62 -82.7529h-8.44043l-267.381 -192.302c14.5986 1.77441 29.4561 2.73926 44.5371 2.73926z" />
    <glyph glyph-name="four" unicode="4" horiz-adv-x="928" 
d="M725.318 221.369h160.037v-7.50195h-160.037v-146.317l-149.624 -168.59v314.907h-532.694v7.50195h0.180664l356.49 810.746l138.246 -2.98047v-9.34473l-0.706055 -0.516602l-344.519 -797.904h383.001v220.845l-1.2832 -0.956055v9.34473l143.923 106.818
l1.38672 -1.86035l5.59863 4.15137v-338.343z" />
    <glyph glyph-name="five" unicode="5" horiz-adv-x="827" 
d="M415.876 718.624c203.076 0 367.694 -164.629 367.703 -367.705c0 -203.076 -164.628 -367.704 -367.704 -367.704c-169.899 0 -311.471 91.7275 -353.657 248.294l110.384 135.24c12.0068 -41.3418 29.8877 -83.7344 53.832 -125.206
c99.5918 -172.491 265.142 -263.357 369.771 -202.955c104.621 60.4023 108.704 249.216 9.1123 421.707s-265.142 263.357 -369.771 202.955c-43.3662 -25.0469 -69.3516 -72.2197 -77.9297 -131.089v-36.7598l-119.617 -152.699v488.535l115.604 91.0996l173.74 149.581
h530.834l-163.275 -151.381h-537.285v-307.999c66.3799 65.5791 157.565 106.086 258.26 106.086z" />
    <glyph glyph-name="six" unicode="6" horiz-adv-x="774" 
d="M391.801 723.75c203.08 0 367.701 -164.631 367.701 -367.711s-164.63 -367.71 -367.7 -367.71c-203.08 0 -367.71 164.63 -367.71 367.71c0 3.75977 0.179688 7.49023 0.290039 11.2305c-0.950195 25.3701 -0.110352 50.5605 2.39941 75.3105
c3.95996 42.1201 13.9404 82.5303 25.9707 121.48c5.88965 19.5801 13.3096 38.4199 20.5293 57.25c8 18.4697 15.71 36.9893 24.7598 54.7393c17.5 35.8096 37.0098 70.2393 58.25 103.239c42.1699 66.25 90.21 127.57 141.47 185.36
c51.46 57.6201 105.93 112.18 164.34 161.859c-50.5898 -57.6299 -96.21 -119.1 -138 -182.439c-41.5703 -63.4502 -78.9902 -129.24 -109.3 -197.12c-13.5703 -29.9199 -25.4102 -60.3496 -35.5898 -90.9795c60.04 42.6299 133.35 67.7803 212.59 67.7803zM572.132 43.709
c104.63 60.4102 108.71 249.222 9.12012 421.712s-265.14 263.36 -369.77 202.96c-15.3398 -8.86035 -28.46 -20.5508 -39.4697 -34.4609c-4.29004 -13.9805 -7.90039 -28.0801 -11.6504 -42.04c-3.83984 -17.4902 -7.88965 -34.8301 -10.3496 -52.2305
c-5.25 -34.7002 -8.41992 -69.2305 -6.37012 -102.561c1.73047 -33.3301 7.19043 -65.4199 16.3008 -95.5498l-1.49023 -0.320312c11.25 -31.4805 25.8496 -63.29 43.9092 -94.5498c99.5898 -172.5 265.14 -263.37 369.77 -202.96z" />
    <glyph glyph-name="seven" unicode="7" horiz-adv-x="927" 
d="M877.194 1066.43l2.31836 -2.55957l-708.847 -644.258l7.61426 -415.695l-149.624 -3.74707l-3.04883 288.302l-4.70312 5.16797l689.751 626.895h-692.654l187.538 151.373h677.908z" />
    <glyph glyph-name="eight" unicode="8" horiz-adv-x="810" 
d="M772.408 731.725c0 -70.3848 -19.8096 -136.137 -54.1064 -192.035c34.2969 -55.8984 54.1064 -121.649 54.1064 -192.034c0 -203.076 -164.628 -367.704 -367.704 -367.704s-367.704 164.628 -367.704 367.704c0 70.3936 19.8096 136.137 54.1064 192.035
c-34.2969 55.8984 -54.1064 121.649 -54.1064 192.034c0 203.076 164.628 367.704 367.704 367.704s367.704 -164.628 367.704 -367.704zM224.374 1044.06c-98.5576 -56.8975 -107.861 -227.743 -25.3574 -391.553c58.7061 39.6885 129.487 62.8662 205.687 62.8662
c102.235 0 194.687 -41.7471 261.334 -109.092c-2.14453 72.2881 -25.9678 155.282 -71.8916 234.823c-99.5918 172.491 -265.142 263.357 -369.771 202.955zM606.322 434.75c-3.89258 7.4502 -7.90723 14.8916 -12.1875 22.29
c-99.5918 172.491 -265.142 263.357 -369.771 202.955c-7.65723 -4.42676 -14.7109 -9.61133 -21.291 -15.3564c3.89355 -7.4502 7.90723 -14.8916 12.1797 -22.29c99.5918 -172.491 265.142 -263.357 369.771 -202.955c7.66504 4.42676 14.7188 9.61133 21.2988 15.3564z
M585.021 35.333c98.5664 56.9062 107.869 227.743 25.3574 391.562c-58.7061 -39.6973 -129.487 -62.875 -205.687 -62.875c-102.235 0 -194.687 41.7471 -261.334 109.092c2.14453 -72.2969 25.9678 -155.282 71.8916 -234.823
c99.5918 -172.491 265.142 -263.357 369.771 -202.955z" />
    <glyph glyph-name="nine" unicode="9" horiz-adv-x="769" 
d="M746.124 747.581c0.956055 -25.3828 0.113281 -50.5752 -2.39355 -75.3203c-3.9707 -42.1172 -13.9443 -82.5293 -25.9766 -121.485c-5.88281 -19.5771 -13.2988 -38.4141 -20.5254 -57.2422c-7.99316 -18.4746 -15.71 -36.9922 -24.7617 -54.7432
c-17.502 -35.8125 -37.002 -70.2383 -58.2588 -103.243c-42.1602 -66.251 -90.2031 -127.566 -141.468 -185.359c-51.4629 -57.6123 -105.939 -112.176 -164.335 -161.855c50.584 57.6289 96.207 119.1 137.997 182.439c41.5664 63.4512 78.9893 129.237 109.298 197.116
c13.5742 29.9297 25.4082 60.3594 35.5889 90.9873c-60.0322 -42.626 -133.346 -67.7754 -212.585 -67.7754c-203.076 0 -367.704 164.628 -367.704 367.704s164.628 367.704 367.704 367.704s367.704 -164.628 367.704 -367.704
c0 -3.76367 -0.171875 -7.48438 -0.28418 -11.2227zM620.505 575.211c5.24512 34.6934 8.4043 69.2217 6.35449 102.554c-1.73145 33.332 -7.18359 65.4238 -16.2959 95.5518l1.49902 0.318359c-11.2568 31.4805 -25.8555 63.2793 -43.9082 94.5527
c-99.5918 172.5 -265.15 263.366 -369.771 202.955c-104.63 -60.4023 -108.713 -249.207 -9.12109 -421.707c99.5918 -172.491 265.15 -263.357 369.772 -202.955c15.3398 8.85449 28.4492 20.542 39.4648 34.4609c4.29785 13.9785 7.88965 28.0781 11.6533 42.04
c3.83301 17.4844 7.88965 34.8223 10.3525 52.2295z" />
    <glyph glyph-name="colon" unicode=":" horiz-adv-x="194" 
d="M172.938 466.932l-76.4688 -76.4688l-76.4688 76.4688l76.4688 76.4688zM173.399 121.924l-76.4688 -76.4688l-76.4688 76.4688l76.4688 76.4688z" />
    <glyph glyph-name="semicolon" unicode=";" horiz-adv-x="227" 
d="M115.949 370.617c-26.4414 0 -48.0352 8.21582 -64.7959 24.667c-16.7783 16.4424 -25.1504 36.9072 -25.1504 61.4199c0 25.1494 8.37207 45.9414 25.1504 62.3838c16.752 16.4336 38.3535 24.6592 64.7949 24.6592c11.6104 0 24.0127 -3.86719 37.2422 -11.6016
c13.2041 -7.74316 24.3232 -18.2334 33.3672 -31.4375c9.02637 -13.2207 13.54 -27.8975 13.54 -44.0039c0 -15.4775 -4.52148 -29.835 -13.5391 -43.0391c-9.04395 -13.2207 -20.1631 -23.6943 -33.3672 -31.4375c-13.2295 -7.74316 -25.6406 -11.6104 -37.2422 -11.6104z
M153.19 222.637c13.2119 -7.74316 24.3232 -18.2256 33.3672 -31.4375c9.02637 -13.2207 13.5391 -27.8975 13.5391 -44.0039c0 -11.6016 -2.90234 -22.8936 -8.70703 -33.8496c-7.10547 -16.7783 -18.3799 -35.3047 -33.8486 -55.6143
c-15.4775 -20.3096 -31.9287 -39.1719 -49.3359 -56.5791c11.6104 14.1855 24.5039 36.752 38.6895 67.6982c-11.6016 -5.16797 -21.9287 -7.73438 -30.9463 -7.73438c-26.4414 0 -48.0342 8.2168 -64.7949 24.6592c-16.7783 16.4424 -25.1504 36.9072 -25.1504 61.4199
c0 25.1494 8.37207 45.9414 25.1504 62.3838c16.752 16.4512 38.3535 24.668 64.7949 24.668c11.6104 0 24.0127 -3.87598 37.2422 -11.6104z" />
    <glyph glyph-name="less" unicode="&#x3c;" horiz-adv-x="468" 
d="M425.484 887.378l-350.314 -350.323l350.314 -350.073l-16.0977 -16.0977l-366.387 366.137l8.00098 8.00977l-0.0341797 0.0253906l358.42 358.42z" />
    <glyph glyph-name="greater" unicode="&#x3e;" horiz-adv-x="468" 
d="M417.482 545.029l8.00098 -8.00977l-366.387 -366.137l-16.0977 16.0977l350.314 350.073l-350.314 350.323l16.0977 16.0977l358.42 -358.42z" />
    <glyph glyph-name="question" unicode="?" horiz-adv-x="794" 
d="M765.423 814.107c166.799 -443.55 -691.509 -450.871 -711.052 -611.339c0 141.718 656.514 239.854 560.221 594.035c-52.0137 168.969 -184.214 264.443 -288.241 245.685c-111.572 -20.1201 -184.455 -164.138 -192.913 -352.279h-116.438
c51.6348 218.554 211.302 377.851 400.365 377.851c145.258 0 284.099 -76.3965 348.059 -253.952zM174.795 83.3154l-76.4688 -76.4688l-76.4688 76.4688l76.4688 76.4688z" />
    <glyph glyph-name="at" unicode="@" horiz-adv-x="1164" 
d="M1135.24 526.641c0.00878906 -0.525391 0.0429688 -1.05469 0.0341797 -1.59766c0 -15.2969 -0.645508 -30.4473 -1.89453 -45.4248c-7.92383 -129.082 -46.4414 -384.594 -226.607 -398.65c-1.64551 -0.0253906 -3.27344 -0.0341797 -4.89258 -0.0341797
c-51.6006 0 -88.1885 11.748 -109.032 34.96c-14.668 16.3301 -17.3125 33.8145 -17.6055 42.7207h-0.775391v85.6475c-65.3125 -56.7852 -150.563 -91.2451 -243.911 -91.2451c-205.471 0 -372.037 166.566 -372.037 372.037s166.566 372.037 372.037 372.037
c93.3477 0 178.599 -34.46 243.911 -91.2451v72.125h151.39v-719.354h-142.983c0.335938 -7.80371 2.77344 -23.4277 15.7441 -37.7852c19.999 -22.1436 56.2686 -33.1514 107.809 -32.2812c157.798 12.3164 203.378 218.718 216.323 352.106l-1.35254 1.35254
c1.99805 13.0488 3.49707 26.2529 4.55664 39.5859c1.04199 17.6914 1.51562 32.9102 1.70508 44.6836c-0.663086 301.358 -246.012 546.319 -547.517 546.319c-301.919 0 -547.552 -245.624 -547.552 -547.543s245.633 -547.543 547.552 -547.543
c81.0225 0 157.91 17.8291 227.167 49.542l6.6582 -5.31445c-71.1172 -33.1768 -150.313 -51.8242 -233.824 -51.8242c-306.104 0 -555.14 249.035 -555.14 555.14s249.035 555.14 555.14 555.14c296.76 0 539.86 -234.057 554.434 -527.25l0.654297 0.0175781
c0.0175781 -0.645508 0.276367 -10.2666 0.00976562 -26.3213zM713.013 209.034c105.862 61.126 109.988 252.144 9.22559 426.677s-268.268 266.468 -374.13 205.351s-109.988 -252.144 -9.22559 -426.677s268.268 -266.468 374.13 -205.351z" />
    <glyph glyph-name="A" unicode="A" horiz-adv-x="810" 
d="M403.112 523.55c-0.0175781 -0.327148 -0.0683594 -0.698242 -0.0595703 -1.0166l-0.0947266 0.137695c0.0341797 0.301758 0.120117 0.577148 0.154297 0.878906zM477.676 1037.59l344.528 -1035.67h-151.132l-76.4404 229.785h-495.753l-110.091 -234.437
l-7.78613 3.66895l110.607 235.556v3.82422h1.7998l291.712 621.201l-58.5684 176.074h151.123zM102.928 240.312h488.837l-202.697 609.35z" />
    <glyph glyph-name="A" unicode="&#xc5;" horiz-adv-x="810" 
d="M403.112 523.55c-0.0175781 -0.327148 -0.0683594 -0.698242 -0.0595703 -1.0166l-0.0947266 0.137695c0.0341797 0.301758 0.120117 0.577148 0.154297 0.878906zM477.676 1037.59l344.528 -1035.67h-151.132l-76.4404 229.785h-495.753l-110.091 -234.437
l-7.78613 3.66895l110.607 235.556v3.82422h1.7998l291.712 621.201l-58.5684 176.074h151.123zM102.928 240.312h488.837l-202.697 609.35z" />
    <glyph glyph-name="A" unicode="&#xc4;" horiz-adv-x="810" 
d="M403.112 523.55c-0.0175781 -0.327148 -0.0683594 -0.698242 -0.0595703 -1.0166l-0.0947266 0.137695c0.0341797 0.301758 0.120117 0.577148 0.154297 0.878906zM477.676 1037.59l344.528 -1035.67h-151.132l-76.4404 229.785h-495.753l-110.091 -234.437
l-7.78613 3.66895l110.607 235.556v3.82422h1.7998l291.712 621.201l-58.5684 176.074h151.123zM102.928 240.312h488.837l-202.697 609.35z" />
    <glyph glyph-name="A" unicode="&#xc3;" horiz-adv-x="810" 
d="M403.112 523.55c-0.0175781 -0.327148 -0.0683594 -0.698242 -0.0595703 -1.0166l-0.0947266 0.137695c0.0341797 0.301758 0.120117 0.577148 0.154297 0.878906zM477.676 1037.59l344.528 -1035.67h-151.132l-76.4404 229.785h-495.753l-110.091 -234.437
l-7.78613 3.66895l110.607 235.556v3.82422h1.7998l291.712 621.201l-58.5684 176.074h151.123zM102.928 240.312h488.837l-202.697 609.35z" />
    <glyph glyph-name="A" unicode="&#xc2;" horiz-adv-x="810" 
d="M403.112 523.55c-0.0175781 -0.327148 -0.0683594 -0.698242 -0.0595703 -1.0166l-0.0947266 0.137695c0.0341797 0.301758 0.120117 0.577148 0.154297 0.878906zM477.676 1037.59l344.528 -1035.67h-151.132l-76.4404 229.785h-495.753l-110.091 -234.437
l-7.78613 3.66895l110.607 235.556v3.82422h1.7998l291.712 621.201l-58.5684 176.074h151.123zM102.928 240.312h488.837l-202.697 609.35z" />
    <glyph glyph-name="A" unicode="&#xc1;" horiz-adv-x="810" 
d="M403.112 523.55c-0.0175781 -0.327148 -0.0683594 -0.698242 -0.0595703 -1.0166l-0.0947266 0.137695c0.0341797 0.301758 0.120117 0.577148 0.154297 0.878906zM477.676 1037.59l344.528 -1035.67h-151.132l-76.4404 229.785h-495.753l-110.091 -234.437
l-7.78613 3.66895l110.607 235.556v3.82422h1.7998l291.712 621.201l-58.5684 176.074h151.123zM102.928 240.312h488.837l-202.697 609.35z" />
    <glyph glyph-name="A" unicode="&#xc0;" horiz-adv-x="810" 
d="M403.112 523.55c-0.0175781 -0.327148 -0.0683594 -0.698242 -0.0595703 -1.0166l-0.0947266 0.137695c0.0341797 0.301758 0.120117 0.577148 0.154297 0.878906zM477.676 1037.59l344.528 -1035.67h-151.132l-76.4404 229.785h-495.753l-110.091 -234.437
l-7.78613 3.66895l110.607 235.556v3.82422h1.7998l291.712 621.201l-58.5684 176.074h151.123zM102.928 240.312h488.837l-202.697 609.35z" />
    <glyph glyph-name="B" unicode="B" horiz-adv-x="945" 
d="M709.133 517.96c72.168 -15.0557 208.528 -68.1885 208.52 -255.142c0 -158.573 -130.572 -261.257 -236.615 -261.257h-615.826v0.947266h-15.2109v1035.67h151.132v-0.223633h464.333s252.196 -6.9248 252.196 -261.085
c0 -144.801 -108.876 -242.945 -208.528 -258.914zM201.132 1029.35l0.000976562 -505.116h389.856c78.5674 0 170.287 130.125 170.287 252.645s-58.0859 252.472 -278.044 252.472h-282.101zM493.259 10.1748c157.893 0 268.018 130.133 268.018 252.652
s-87.0859 252.472 -170.993 252.472h-389.15v-505.124h292.126z" />
    <glyph glyph-name="C" unicode="C" horiz-adv-x="991" 
d="M906.127 294.764h98.0498c-84.7773 -174.292 -263.53 -294.435 -470.37 -294.435c-288.741 0 -522.807 234.065 -522.807 522.807s234.065 522.807 522.807 522.807c119.178 0 228.976 -39.9551 316.923 -107.093l-81.6768 -93.2783
c-113.054 140.796 -270.094 209.76 -406.463 161.51c-190.846 -67.5254 -268.896 -338.929 -174.335 -606.197c94.5615 -267.277 325.923 -429.201 516.769 -361.685c103.2 36.5107 173.327 132.7 201.104 255.564z" />
    <glyph glyph-name="C" unicode="&#xc7;" horiz-adv-x="991" 
d="M906.127 294.764h98.0498c-84.7773 -174.292 -263.53 -294.435 -470.37 -294.435c-288.741 0 -522.807 234.065 -522.807 522.807s234.065 522.807 522.807 522.807c119.178 0 228.976 -39.9551 316.923 -107.093l-81.6768 -93.2783
c-113.054 140.796 -270.094 209.76 -406.463 161.51c-190.846 -67.5254 -268.896 -338.929 -174.335 -606.197c94.5615 -267.277 325.923 -429.201 516.769 -361.685c103.2 36.5107 173.327 132.7 201.104 255.564z" />
    <glyph glyph-name="D" unicode="D" horiz-adv-x="920" 
d="M404.225 1037.13c279.947 -7.83789 504.513 -237.062 504.513 -518.904s-224.574 -511.067 -504.513 -518.905v-0.0859375h-3.53125c-3.74707 -0.0771484 -7.46777 -0.28418 -11.2314 -0.28418c-1.12793 0 -2.24805 0.0771484 -3.37598 0.0859375v0.198242h-184.955
v-0.232422h-151.132v1039.18h151.132v-0.344727h203.094v-0.706055zM389.471 8.36719c201.061 0 364.061 228.271 364.069 509.862c0 281.592 -163 509.869 -364.069 509.869c-1.12793 0 -2.24805 -0.103516 -3.37598 -0.121094v1.24902h-184.955v-1021.37h184.955v0.628906
c1.12793 -0.0175781 2.23926 -0.121094 3.37598 -0.121094z" />
    <glyph glyph-name="E" unicode="E" horiz-adv-x="888" 
d="M893.726 1029.35h-692.604v-505.115h692.603v-8.93164h-692.603v-505.047h692.603v-8.76758h-843.682v1.0332h-0.0429688v1035.67h151.123v-0.223633h692.603v-8.61328z" />
    <glyph glyph-name="E" unicode="&#xcb;" horiz-adv-x="888" 
d="M893.726 1029.35h-692.604v-505.115h692.603v-8.93164h-692.603v-505.047h692.603v-8.76758h-843.682v1.0332h-0.0429688v1035.67h151.123v-0.223633h692.603v-8.61328z" />
    <glyph glyph-name="E" unicode="&#xca;" horiz-adv-x="888" 
d="M893.726 1029.35h-692.604v-505.115h692.603v-8.93164h-692.603v-505.047h692.603v-8.76758h-843.682v1.0332h-0.0429688v1035.67h151.123v-0.223633h692.603v-8.61328z" />
    <glyph glyph-name="E" unicode="&#xc9;" horiz-adv-x="888" 
d="M893.726 1029.35h-692.604v-505.115h692.603v-8.93164h-692.603v-505.047h692.603v-8.76758h-843.682v1.0332h-0.0429688v1035.67h151.123v-0.223633h692.603v-8.61328z" />
    <glyph glyph-name="E" unicode="&#xc8;" horiz-adv-x="888" 
d="M893.726 1029.35h-692.604v-505.115h692.603v-8.93164h-692.603v-505.047h692.603v-8.76758h-843.682v1.0332h-0.0429688v1035.67h151.123v-0.223633h692.603v-8.61328z" />
    <glyph glyph-name="F" unicode="F" horiz-adv-x="882" 
d="M893.726 1029.35h-692.603v-505.115h692.603v-8.61328h-692.603v-513.1h-151.123v1035.67h151.123v-0.223633h692.603v-8.61328z" />
    <glyph glyph-name="G" unicode="G" horiz-adv-x="1065" 
d="M1052.25 456.153l1.90137 -0.000976562v-8.62988h-1.86035l1.74805 -453.438c0 92.0381 -87.7832 92.7617 -129.22 182.276c-95.7334 -107.938 -235.375 -176.031 -391.02 -176.031c-288.741 0 -522.807 234.065 -522.807 522.807s234.065 522.807 522.807 522.807
c116.111 0 223.343 -37.9053 310.118 -101.942l-90.5654 -79.6787c-111.606 128.066 -260.594 188.822 -390.77 142.769c-190.846 -67.5254 -268.896 -338.929 -174.335 -606.197c94.5615 -267.277 325.923 -429.201 516.769 -361.685
c100.367 35.5107 169.452 127.437 198.702 245.478c-0.0253906 1.75684 -0.120117 3.39355 -0.120117 5.18457v157.669h-177.754v8.61328h177.754v0.180664h148.651v-0.180664z" />
    <glyph glyph-name="H" unicode="H" horiz-adv-x="949" 
d="M747.649 1038.18l151.123 0.000976562v-1035.67h-151.123v512.781h-546.526v-512.781h-151.123v1035.67h151.123v-514.271h546.526v514.271z" />
    <glyph glyph-name="I" unicode="I" horiz-adv-x="252" 
d="M201.132 2.50879h-151.132v1035.67h151.132v-1035.67z" />
    <glyph glyph-name="I" unicode="&#xcf;" horiz-adv-x="252" 
d="M201.132 2.50879h-151.132v1035.67h151.132v-1035.67z" />
    <glyph glyph-name="I" unicode="&#xce;" horiz-adv-x="252" 
d="M201.132 2.50879h-151.132v1035.67h151.132v-1035.67z" />
    <glyph glyph-name="I" unicode="&#xcd;" horiz-adv-x="252" 
d="M201.132 2.50879h-151.132v1035.67h151.132v-1035.67z" />
    <glyph glyph-name="I" unicode="&#xcc;" horiz-adv-x="252" 
d="M201.132 2.50879h-151.132v1035.67h151.132v-1035.67z" />
    <glyph glyph-name="J" unicode="J" horiz-adv-x="1008" 
d="M976.346 497.952h0.198242c-0.0517578 -0.956055 -0.155273 -1.88672 -0.207031 -2.83398c0 0 -2.83398 -494.788 -521.963 -494.788c-206.84 0 -385.593 120.143 -470.37 294.435h98.0498c27.7764 -122.864 97.9033 -219.054 201.104 -255.564
c190.846 -67.5166 542.057 124.518 542.057 451.655v552.745h151.132v-545.648z" />
    <glyph glyph-name="K" unicode="K" horiz-adv-x="918" 
d="M306.382 602.307l632.483 -600.393h-185.583l-552.159 511.773v-511.17h-151.123v1035.67h151.123v-503.866l681.414 509.818l5.15918 -6.89941z" />
    <glyph glyph-name="L" unicode="L" horiz-adv-x="869" 
d="M201.123 8.79688h692.603v-8.61328h-843.631v0.947266h-0.0947266v1035.67h151.123v-1028.01z" />
    <glyph glyph-name="M" unicode="M" horiz-adv-x="1496" 
d="M1297.72 1035.64l148.109 0.000976562v-1035.42h-0.25v0.0341797s-147.858 0.232422 -147.85 0.241211v1014.05l-539.92 -1011.17c-0.25 1.4043 -0.310547 2.96289 -0.46582 4.44434l-2.66113 -5.87402c2.94531 2.94531 -698.839 1013.06 -698.839 1019.81v-1019.66
h-6.27051s-0.112305 1030.54 -0.112305 1033.58h-8.45801v0.155273l170.209 -0.568359c-2.90234 -2.89355 612.339 -885.309 612.339 -888.65z" />
    <glyph glyph-name="N" unicode="N" horiz-adv-x="817" 
d="M757.951 1034.86l8.61523 0.000976562v-1033.2h-8.61328v0.0429688l-0.146484 -0.275391c-0.25 1.4043 -0.310547 2.96289 -0.46582 4.44434l-2.66113 -5.87402c2.9375 2.94531 -698.838 1013.06 -698.838 1019.81v-1019.65h-6.27051
s-0.112305 1030.54 -0.112305 1033.58h-8.45801v0.155273l170.209 -0.568359c-2.30859 -2.30859 388.314 -563.71 546.741 -792.857v794.398z" />
    <glyph glyph-name="N" unicode="&#xd1;" horiz-adv-x="817" 
d="M757.951 1034.86l8.61523 0.000976562v-1033.2h-8.61328v0.0429688l-0.146484 -0.275391c-0.25 1.4043 -0.310547 2.96289 -0.46582 4.44434l-2.66113 -5.87402c2.9375 2.94531 -698.838 1013.06 -698.838 1019.81v-1019.65h-6.27051
s-0.112305 1030.54 -0.112305 1033.58h-8.45801v0.155273l170.209 -0.568359c-2.30859 -2.30859 388.314 -563.71 546.741 -792.857v794.398z" />
    <glyph glyph-name="O" unicode="O" horiz-adv-x="1068" 
d="M533.807 1045.94c288.732 0 522.807 -234.065 522.807 -522.807s-234.065 -522.807 -522.807 -522.807s-522.807 234.065 -522.807 522.807s234.074 522.807 522.807 522.807zM705.023 39.2002c190.837 67.5166 268.896 338.92 174.335 606.197
s-325.932 429.201 -516.769 361.685c-190.846 -67.5254 -268.896 -338.929 -174.335 -606.197c94.5615 -267.277 325.932 -429.201 516.769 -361.685z" />
    <glyph glyph-name="O" unicode="&#xd8;" horiz-adv-x="1068" 
d="M533.807 1045.94c288.732 0 522.807 -234.065 522.807 -522.807s-234.065 -522.807 -522.807 -522.807s-522.807 234.065 -522.807 522.807s234.074 522.807 522.807 522.807zM705.023 39.2002c190.837 67.5166 268.896 338.92 174.335 606.197
s-325.932 429.201 -516.769 361.685c-190.846 -67.5254 -268.896 -338.929 -174.335 -606.197c94.5615 -267.277 325.932 -429.201 516.769 -361.685z" />
    <glyph glyph-name="O" unicode="&#xd6;" horiz-adv-x="1068" 
d="M533.807 1045.94c288.732 0 522.807 -234.065 522.807 -522.807s-234.065 -522.807 -522.807 -522.807s-522.807 234.065 -522.807 522.807s234.074 522.807 522.807 522.807zM705.023 39.2002c190.837 67.5166 268.896 338.92 174.335 606.197
s-325.932 429.201 -516.769 361.685c-190.846 -67.5254 -268.896 -338.929 -174.335 -606.197c94.5615 -267.277 325.932 -429.201 516.769 -361.685z" />
    <glyph glyph-name="O" unicode="&#xd5;" horiz-adv-x="1068" 
d="M533.807 1045.94c288.732 0 522.807 -234.065 522.807 -522.807s-234.065 -522.807 -522.807 -522.807s-522.807 234.065 -522.807 522.807s234.074 522.807 522.807 522.807zM705.023 39.2002c190.837 67.5166 268.896 338.92 174.335 606.197
s-325.932 429.201 -516.769 361.685c-190.846 -67.5254 -268.896 -338.929 -174.335 -606.197c94.5615 -267.277 325.932 -429.201 516.769 -361.685z" />
    <glyph glyph-name="O" unicode="&#xd4;" horiz-adv-x="1068" 
d="M533.807 1045.94c288.732 0 522.807 -234.065 522.807 -522.807s-234.065 -522.807 -522.807 -522.807s-522.807 234.065 -522.807 522.807s234.074 522.807 522.807 522.807zM705.023 39.2002c190.837 67.5166 268.896 338.92 174.335 606.197
s-325.932 429.201 -516.769 361.685c-190.846 -67.5254 -268.896 -338.929 -174.335 -606.197c94.5615 -267.277 325.932 -429.201 516.769 -361.685z" />
    <glyph glyph-name="O" unicode="&#xd3;" horiz-adv-x="1068" 
d="M533.807 1045.94c288.732 0 522.807 -234.065 522.807 -522.807s-234.065 -522.807 -522.807 -522.807s-522.807 234.065 -522.807 522.807s234.074 522.807 522.807 522.807zM705.023 39.2002c190.837 67.5166 268.896 338.92 174.335 606.197
s-325.932 429.201 -516.769 361.685c-190.846 -67.5254 -268.896 -338.929 -174.335 -606.197c94.5615 -267.277 325.932 -429.201 516.769 -361.685z" />
    <glyph glyph-name="O" unicode="&#xd2;" horiz-adv-x="1068" 
d="M533.807 1045.94c288.732 0 522.807 -234.065 522.807 -522.807s-234.065 -522.807 -522.807 -522.807s-522.807 234.065 -522.807 522.807s234.074 522.807 522.807 522.807zM705.023 39.2002c190.837 67.5166 268.896 338.92 174.335 606.197
s-325.932 429.201 -516.769 361.685c-190.846 -67.5254 -268.896 -338.929 -174.335 -606.197c94.5615 -267.277 325.932 -429.201 516.769 -361.685z" />
    <glyph glyph-name="P" unicode="P" horiz-adv-x="917" 
d="M665.465 1037.96c0 0 252.196 -6.9248 252.196 -261.085c0 -158.573 -130.572 -261.257 -236.615 -261.257h-479.914v-513.108h-151.132v1035.67h151.132v-0.223633h464.333zM590.988 524.23c78.5586 0 170.288 130.124 170.288 252.644
s-58.0859 252.472 -278.044 252.472h-282.101v-505.115h389.856z" />
    <glyph glyph-name="Q" unicode="Q" horiz-adv-x="1253" 
d="M1273.71 26.5566l2.35156 -8.29492c-76.8271 -21.748 -188.839 -46.4756 -300.945 -46.4756c-90.7373 -0.00878906 -181.483 16.2695 -253.729 63.3564c-58.2412 -22.4023 -121.452 -34.8047 -187.582 -34.8047c-288.741 0 -522.807 234.065 -522.807 522.807
s234.074 522.807 522.807 522.807c288.741 0 522.807 -234.065 522.807 -522.807c0 -218.881 -134.561 -406.238 -325.424 -484.134c158.883 -99.1006 406.428 -50.9883 542.521 -12.4541zM705.032 39.2002c2.20508 0.78418 4.31348 1.72266 6.49219 2.56641
c-0.171875 0.120117 -0.352539 0.232422 -0.524414 0.352539c-82.2627 58.5508 -127.722 153.121 -135.111 281.075c-5.52051 86.1035 30.6279 157.522 99.1875 195.928c65.0107 36.3896 144.189 33.7285 201.75 -6.82129
c12.3594 -8.70801 26.9502 -21.5586 40.3604 -39.8867c-4.84082 56.4238 -17.2344 114.803 -37.8193 172.983c-94.5615 267.277 -325.932 429.201 -516.769 361.685c-190.846 -67.5254 -268.896 -338.929 -174.335 -606.197
c94.5615 -267.277 325.932 -429.201 516.769 -361.685zM721.274 45.6084c134.724 57.8535 208.16 221.472 197.058 409.57c-14.7627 24.0908 -32.1699 39.9902 -46.4844 50.0762c-54.8477 38.6465 -130.418 41.1445 -192.578 6.33984
c-65.5449 -36.708 -100.101 -105.189 -94.7949 -187.874c7.23535 -125.258 51.4883 -217.632 131.503 -274.581c1.73145 -1.23145 3.54004 -2.33398 5.29688 -3.53125z" />
    <glyph glyph-name="R" unicode="R" horiz-adv-x="931" 
d="M366.104 515.617l562.771 -513.703h-185.583l-542.16 502.506v-501.911h-151.132v1035.67h151.132v-0.223633h464.333s252.196 -6.9248 252.196 -261.085c0 -158.573 -130.572 -261.257 -236.615 -261.257h-314.941zM201.132 1029.34l0.000976562 -505.116h389.856
c78.5674 0 170.287 130.125 170.287 252.645s-58.0859 252.472 -278.044 252.472h-282.101z" />
    <glyph glyph-name="S" unicode="S" horiz-adv-x="856" 
d="M835.935 665.362l-148.627 3.91699c27.6221 87.4561 -24.0557 273.307 -201.715 348.722c-85.251 19.9736 -175.704 16.6406 -256.459 -21.2734c-0.680664 -0.318359 -1.36133 -0.645508 -2.04199 -0.972656c-122.511 -59.1104 -128.265 -206.297 -8.03613 -269.93
c69.041 -36.5361 142.294 -56.8799 193.713 -67.6807c199.278 -41.8506 333.106 -117.877 386.98 -219.863c42.2295 -79.9111 29.2842 -185.325 8.87988 -234.746l-1.32617 -3.18652l-0.464844 0.689453c-35.8213 -76.4316 -105.526 -147.247 -181.045 -182.879
c-40.2568 -18.8965 -82.8477 -29.5244 -126.007 -33.1768c-42.4443 -3.58301 -85.4141 -0.310547 -127.342 8.43164c-197.409 25.2363 -364.319 135.904 -367.446 302.936l147.635 17.5791c-13.6855 -84.3467 53.0996 -243.281 213.31 -304.184
c84.3721 -19.2324 173.654 -15.5635 253.496 21.9199c15.0723 7.11426 29.9121 15.6924 44.2617 25.4678c100.841 68.7139 92.5039 287.069 -16.4326 342.055c-75.4668 38.0947 -155.86 59.9199 -211.732 71.668c-174.783 36.7432 -296.536 108.498 -352.106 207.486
c-36.2949 64.666 -54.7871 225.005 139.357 331.918c111.047 52.126 239.725 41.334 349.928 -5.4082c15.0898 -7.60547 28.9736 -15.2627 41.8496 -22.9199c141.348 -66.2422 238.64 -180.605 221.371 -316.569z" />
    <glyph glyph-name="T" unicode="T" horiz-adv-x="779" 
d="M466.214 1038.11h337.292v-8.61328h-337.292v-1026.98h-151.132v1026.98h-340.083v8.61328h340.083v0.0693359h151.132v-0.0693359z" />
    <glyph glyph-name="U" unicode="U" horiz-adv-x="1058" 
d="M1025.94 502.577h0.178711l-0.198242 -7.36426c0 -0.999023 -1.41211 -120.754 -62.7793 -241.292c-56.415 -110.849 -176.316 -245.004 -427.289 -256.657h-14.3408c-250.964 11.6533 -370.856 145.809 -427.288 256.657
c-61.3584 120.538 -62.7705 240.293 -62.7793 241.49l-0.448242 7.16602h0.448242v541.342h155.438v-552.745c0 -157.583 80.9277 -346.638 186.729 -427.591c110.539 -68.0938 177.315 -56.7764 177.315 -56.7764c236.133 16.123 350.177 144.361 404.412 250.74
c60.54 118.747 61.9785 236.736 61.9873 237.916l0.0771484 1.1543l-0.0771484 1.65332v545.648h8.61328v-541.342z" />
    <glyph glyph-name="U" unicode="&#xdc;" horiz-adv-x="1058" 
d="M1025.94 502.577h0.178711l-0.198242 -7.36426c0 -0.999023 -1.41211 -120.754 -62.7793 -241.292c-56.415 -110.849 -176.316 -245.004 -427.289 -256.657h-14.3408c-250.964 11.6533 -370.856 145.809 -427.288 256.657
c-61.3584 120.538 -62.7705 240.293 -62.7793 241.49l-0.448242 7.16602h0.448242v541.342h155.438v-552.745c0 -157.583 80.9277 -346.638 186.729 -427.591c110.539 -68.0938 177.315 -56.7764 177.315 -56.7764c236.133 16.123 350.177 144.361 404.412 250.74
c60.54 118.747 61.9785 236.736 61.9873 237.916l0.0771484 1.1543l-0.0771484 1.65332v545.648h8.61328v-541.342z" />
    <glyph glyph-name="U" unicode="&#xdb;" horiz-adv-x="1058" 
d="M1025.94 502.577h0.178711l-0.198242 -7.36426c0 -0.999023 -1.41211 -120.754 -62.7793 -241.292c-56.415 -110.849 -176.316 -245.004 -427.289 -256.657h-14.3408c-250.964 11.6533 -370.856 145.809 -427.288 256.657
c-61.3584 120.538 -62.7705 240.293 -62.7793 241.49l-0.448242 7.16602h0.448242v541.342h155.438v-552.745c0 -157.583 80.9277 -346.638 186.729 -427.591c110.539 -68.0938 177.315 -56.7764 177.315 -56.7764c236.133 16.123 350.177 144.361 404.412 250.74
c60.54 118.747 61.9785 236.736 61.9873 237.916l0.0771484 1.1543l-0.0771484 1.65332v545.648h8.61328v-541.342z" />
    <glyph glyph-name="U" unicode="&#xda;" horiz-adv-x="1058" 
d="M1025.94 502.577h0.178711l-0.198242 -7.36426c0 -0.999023 -1.41211 -120.754 -62.7793 -241.292c-56.415 -110.849 -176.316 -245.004 -427.289 -256.657h-14.3408c-250.964 11.6533 -370.856 145.809 -427.288 256.657
c-61.3584 120.538 -62.7705 240.293 -62.7793 241.49l-0.448242 7.16602h0.448242v541.342h155.438v-552.745c0 -157.583 80.9277 -346.638 186.729 -427.591c110.539 -68.0938 177.315 -56.7764 177.315 -56.7764c236.133 16.123 350.177 144.361 404.412 250.74
c60.54 118.747 61.9785 236.736 61.9873 237.916l0.0771484 1.1543l-0.0771484 1.65332v545.648h8.61328v-541.342z" />
    <glyph glyph-name="U" unicode="&#xd9;" horiz-adv-x="1058" 
d="M1025.94 502.577h0.178711l-0.198242 -7.36426c0 -0.999023 -1.41211 -120.754 -62.7793 -241.292c-56.415 -110.849 -176.316 -245.004 -427.289 -256.657h-14.3408c-250.964 11.6533 -370.856 145.809 -427.288 256.657
c-61.3584 120.538 -62.7705 240.293 -62.7793 241.49l-0.448242 7.16602h0.448242v541.342h155.438v-552.745c0 -157.583 80.9277 -346.638 186.729 -427.591c110.539 -68.0938 177.315 -56.7764 177.315 -56.7764c236.133 16.123 350.177 144.361 404.412 250.74
c60.54 118.747 61.9785 236.736 61.9873 237.916l0.0771484 1.1543l-0.0771484 1.65332v545.648h8.61328v-541.342z" />
    <glyph glyph-name="V" unicode="V" horiz-adv-x="1117" 
d="M1135 1035.75l-414.895 -883.526l98.0498 -153.121h-176.962l-663.197 1035.67h176.962l559.652 -873.974l412.604 878.625z" />
    <glyph glyph-name="W" unicode="W" horiz-adv-x="1720" 
d="M1737.91 1035.75l-414.893 -883.527l98.0498 -153.121h-176.962l-345.233 539.119l-182.715 -379.831l102.003 -159.288h-176.962l-4.41895 6.89062l-2.8252 1.36133l0.835938 1.74023l-656.79 1025.67h176.962l555.742 -867.858l182.715 379.831l-312.513 488.027
h176.962l559.652 -873.974l412.604 878.625z" />
    <glyph glyph-name="X" unicode="X" horiz-adv-x="817" 
d="M828.659 1034.89l-369.358 -459.751l368.867 -576.034h-176.971l-290.377 453.455l-361.339 -449.769l-6.70996 5.40039l363.148 452.025l-367.92 574.553h176.971l289.43 -451.982l367.549 457.503z" />
    <glyph glyph-name="Y" unicode="Y" horiz-adv-x="1117" 
d="M1135 1035.75l-416.247 -881.407l99.4023 -155.231h-172.716l-217.099 -459.708l-7.78613 3.68652l217.598 460.768l-660.157 1030.92h176.962l558.31 -871.863l413.947 876.523z" />
    <glyph glyph-name="Y" unicode="&#x178;" horiz-adv-x="1117" 
d="M1135 1035.75l-416.247 -881.407l99.4023 -155.231h-172.716l-217.099 -459.708l-7.78613 3.68652l217.598 460.768l-660.157 1030.92h176.962l558.31 -871.863l413.947 876.523z" />
    <glyph glyph-name="Y" unicode="&#xdd;" horiz-adv-x="1117" 
d="M1135 1035.75l-416.247 -881.407l99.4023 -155.231h-172.716l-217.099 -459.708l-7.78613 3.68652l217.598 460.768l-660.157 1030.92h176.962l558.31 -871.863l413.947 876.523z" />
    <glyph glyph-name="Z" unicode="Z" horiz-adv-x="810" 
d="M822.007 1034.77h3.16016l-3.16113 -4.92676v-0.344727h-0.214844l-656.324 -1024.94h656.54v-8.61328h-828.506v3.16113h-8.50098l659.821 1030.39h-651.32v8.61328h828.506v-3.3418z" />
    <glyph glyph-name="bracketleft" unicode="[" horiz-adv-x="428" 
d="M384.105 1042.64l-180.631 0.000976562v-1025.87h180.631v-19.7324h-180.631v-0.448242h-153.475v1064.6l57.1816 0.749023v0.430664h79.834l16.459 0.0859375v-0.0859375h180.631v-19.7324z" />
    <glyph glyph-name="backslash" unicode="\" horiz-adv-x="442" 
d="M399.114 7.63184l-19.2012 -6.09766l-336.913 1060.83l19.2012 6.09766z" />
    <glyph glyph-name="bracketright" unicode="]" horiz-adv-x="428" 
d="M319.933 1061.95l57.1826 -0.75v-1064.6h-153.475v0.448242h-180.64v19.7324h180.64v1025.87h-180.64v19.7324h180.64v0.0859375l16.459 -0.0859375h79.833v-0.430664z" />
    <glyph glyph-name="asciicircum" unicode="^" horiz-adv-x="443" 
d="M221.336 1073.75l211.156 -211.301l-9.28516 -9.27637l-201.888 202.025l-202.034 -202.034l-9.28516 9.28516l206.702 206.702l0.0175781 -0.0175781z" />
    <glyph glyph-name="a" unicode="a" horiz-adv-x="661" 
d="M616.658 25.9902c19.7695 -20.1797 45.4883 -30.2705 77.1387 -30.2607h-143.56c-31.6602 0 -57.7598 10.0801 -78.3301 30.2705c-20.5801 20.1699 -30.8604 44.8896 -30.8604 74.1797l4.34961 345.58c-3.66016 -21.5498 -24.4697 -63.4199 -125.08 -94.0801
c-229.31 -79.96 -206.8 -332.62 13.79 -291.62c0 0 -204.05 -105.47 -280.76 -46.9102c-103.02 86.9805 -33.6895 315.131 283.28 356.371c115.54 24.3799 104.44 112.85 104.44 112.85c0 30.8701 -13.2402 74.6504 -33 94.4404
c-19.0195 17.5303 -51.8496 26.3301 -86.5996 27.3105c-105.99 -4.63965 -151.04 -102.54 -153.95 -154.78l-81.0498 28.2197c18.4902 77.1201 151.03 140.42 268.59 134.939c79.6299 -1.74023 164.25 -36.0498 205.24 -111.729
c17.7803 -27.2998 26.6807 -58.75 26.6807 -94.3701v-306.23c0 -29.29 9.88965 -54 29.6797 -74.1797z" />
    <glyph glyph-name="a" unicode="&#xe5;" horiz-adv-x="661" 
d="M616.658 25.9902c19.7695 -20.1797 45.4883 -30.2705 77.1387 -30.2607h-143.56c-31.6602 0 -57.7598 10.0801 -78.3301 30.2705c-20.5801 20.1699 -30.8604 44.8896 -30.8604 74.1797l4.34961 345.58c-3.66016 -21.5498 -24.4697 -63.4199 -125.08 -94.0801
c-229.31 -79.96 -206.8 -332.62 13.79 -291.62c0 0 -204.05 -105.47 -280.76 -46.9102c-103.02 86.9805 -33.6895 315.131 283.28 356.371c115.54 24.3799 104.44 112.85 104.44 112.85c0 30.8701 -13.2402 74.6504 -33 94.4404
c-19.0195 17.5303 -51.8496 26.3301 -86.5996 27.3105c-105.99 -4.63965 -151.04 -102.54 -153.95 -154.78l-81.0498 28.2197c18.4902 77.1201 151.03 140.42 268.59 134.939c79.6299 -1.74023 164.25 -36.0498 205.24 -111.729
c17.7803 -27.2998 26.6807 -58.75 26.6807 -94.3701v-306.23c0 -29.29 9.88965 -54 29.6797 -74.1797z" />
    <glyph glyph-name="a" unicode="&#xe4;" horiz-adv-x="661" 
d="M616.658 25.9902c19.7695 -20.1797 45.4883 -30.2705 77.1387 -30.2607h-143.56c-31.6602 0 -57.7598 10.0801 -78.3301 30.2705c-20.5801 20.1699 -30.8604 44.8896 -30.8604 74.1797l4.34961 345.58c-3.66016 -21.5498 -24.4697 -63.4199 -125.08 -94.0801
c-229.31 -79.96 -206.8 -332.62 13.79 -291.62c0 0 -204.05 -105.47 -280.76 -46.9102c-103.02 86.9805 -33.6895 315.131 283.28 356.371c115.54 24.3799 104.44 112.85 104.44 112.85c0 30.8701 -13.2402 74.6504 -33 94.4404
c-19.0195 17.5303 -51.8496 26.3301 -86.5996 27.3105c-105.99 -4.63965 -151.04 -102.54 -153.95 -154.78l-81.0498 28.2197c18.4902 77.1201 151.03 140.42 268.59 134.939c79.6299 -1.74023 164.25 -36.0498 205.24 -111.729
c17.7803 -27.2998 26.6807 -58.75 26.6807 -94.3701v-306.23c0 -29.29 9.88965 -54 29.6797 -74.1797z" />
    <glyph glyph-name="a" unicode="&#xe3;" horiz-adv-x="661" 
d="M616.658 25.9902c19.7695 -20.1797 45.4883 -30.2705 77.1387 -30.2607h-143.56c-31.6602 0 -57.7598 10.0801 -78.3301 30.2705c-20.5801 20.1699 -30.8604 44.8896 -30.8604 74.1797l4.34961 345.58c-3.66016 -21.5498 -24.4697 -63.4199 -125.08 -94.0801
c-229.31 -79.96 -206.8 -332.62 13.79 -291.62c0 0 -204.05 -105.47 -280.76 -46.9102c-103.02 86.9805 -33.6895 315.131 283.28 356.371c115.54 24.3799 104.44 112.85 104.44 112.85c0 30.8701 -13.2402 74.6504 -33 94.4404
c-19.0195 17.5303 -51.8496 26.3301 -86.5996 27.3105c-105.99 -4.63965 -151.04 -102.54 -153.95 -154.78l-81.0498 28.2197c18.4902 77.1201 151.03 140.42 268.59 134.939c79.6299 -1.74023 164.25 -36.0498 205.24 -111.729
c17.7803 -27.2998 26.6807 -58.75 26.6807 -94.3701v-306.23c0 -29.29 9.88965 -54 29.6797 -74.1797z" />
    <glyph glyph-name="a" unicode="&#xe2;" horiz-adv-x="661" 
d="M616.658 25.9902c19.7695 -20.1797 45.4883 -30.2705 77.1387 -30.2607h-143.56c-31.6602 0 -57.7598 10.0801 -78.3301 30.2705c-20.5801 20.1699 -30.8604 44.8896 -30.8604 74.1797l4.34961 345.58c-3.66016 -21.5498 -24.4697 -63.4199 -125.08 -94.0801
c-229.31 -79.96 -206.8 -332.62 13.79 -291.62c0 0 -204.05 -105.47 -280.76 -46.9102c-103.02 86.9805 -33.6895 315.131 283.28 356.371c115.54 24.3799 104.44 112.85 104.44 112.85c0 30.8701 -13.2402 74.6504 -33 94.4404
c-19.0195 17.5303 -51.8496 26.3301 -86.5996 27.3105c-105.99 -4.63965 -151.04 -102.54 -153.95 -154.78l-81.0498 28.2197c18.4902 77.1201 151.03 140.42 268.59 134.939c79.6299 -1.74023 164.25 -36.0498 205.24 -111.729
c17.7803 -27.2998 26.6807 -58.75 26.6807 -94.3701v-306.23c0 -29.29 9.88965 -54 29.6797 -74.1797z" />
    <glyph glyph-name="a" unicode="&#xe1;" horiz-adv-x="661" 
d="M616.658 25.9902c19.7695 -20.1797 45.4883 -30.2705 77.1387 -30.2607h-143.56c-31.6602 0 -57.7598 10.0801 -78.3301 30.2705c-20.5801 20.1699 -30.8604 44.8896 -30.8604 74.1797l4.34961 345.58c-3.66016 -21.5498 -24.4697 -63.4199 -125.08 -94.0801
c-229.31 -79.96 -206.8 -332.62 13.79 -291.62c0 0 -204.05 -105.47 -280.76 -46.9102c-103.02 86.9805 -33.6895 315.131 283.28 356.371c115.54 24.3799 104.44 112.85 104.44 112.85c0 30.8701 -13.2402 74.6504 -33 94.4404
c-19.0195 17.5303 -51.8496 26.3301 -86.5996 27.3105c-105.99 -4.63965 -151.04 -102.54 -153.95 -154.78l-81.0498 28.2197c18.4902 77.1201 151.03 140.42 268.59 134.939c79.6299 -1.74023 164.25 -36.0498 205.24 -111.729
c17.7803 -27.2998 26.6807 -58.75 26.6807 -94.3701v-306.23c0 -29.29 9.88965 -54 29.6797 -74.1797z" />
    <glyph glyph-name="a" unicode="&#xe0;" horiz-adv-x="661" 
d="M616.658 25.9902c19.7695 -20.1797 45.4883 -30.2705 77.1387 -30.2607h-143.56c-31.6602 0 -57.7598 10.0801 -78.3301 30.2705c-20.5801 20.1699 -30.8604 44.8896 -30.8604 74.1797l4.34961 345.58c-3.66016 -21.5498 -24.4697 -63.4199 -125.08 -94.0801
c-229.31 -79.96 -206.8 -332.62 13.79 -291.62c0 0 -204.05 -105.47 -280.76 -46.9102c-103.02 86.9805 -33.6895 315.131 283.28 356.371c115.54 24.3799 104.44 112.85 104.44 112.85c0 30.8701 -13.2402 74.6504 -33 94.4404
c-19.0195 17.5303 -51.8496 26.3301 -86.5996 27.3105c-105.99 -4.63965 -151.04 -102.54 -153.95 -154.78l-81.0498 28.2197c18.4902 77.1201 151.03 140.42 268.59 134.939c79.6299 -1.74023 164.25 -36.0498 205.24 -111.729
c17.7803 -27.2998 26.6807 -58.75 26.6807 -94.3701v-306.23c0 -29.29 9.88965 -54 29.6797 -74.1797z" />
    <glyph glyph-name="b" unicode="b" horiz-adv-x="631" 
d="M187.434 554.571c408.616 222.396 579.238 -428.192 257.527 -535.131c-111.839 -24.0127 -211.534 54.6406 -237.855 77.7148c-6.97656 4.90039 -13.5479 10.2061 -19.6807 15.9854v-6.68359c0 -29.2842 9.8877 -54.0029 29.6807 -74.1748
c19.7754 -20.1885 45.4854 -30.2744 77.1553 -30.2744h-143.561c-31.6611 0 -57.7588 10.0859 -78.3262 30.2744c-20.585 20.1719 -30.8604 44.8906 -30.8604 74.1748l-1.63672 336.938c-0.568359 -0.5 -1.13672 -0.973633 -1.71387 -1.48145
c0.577148 0.550781 1.13672 1.04199 1.71387 1.59277l-2.87695 592.253c0 -120.443 150.434 -84.3037 150.434 -295.769v-185.42zM228.603 94.3379c340.677 -90.9609 308.301 587.981 -41.1699 445.601v-413.783c11.9033 -12.5322 25.6064 -23.1094 41.1699 -31.8174z" />
    <glyph glyph-name="c" unicode="c" horiz-adv-x="597" 
d="M521.623 156.25l74.6592 8.91797c-30.7305 -58.1104 -80.1602 -106.91 -144.62 -136.23c-154.86 -70.4297 -337.521 -1.98926 -407.95 152.881s-1.98926 337.51 152.881 407.939c113.35 51.5498 241.52 28.6396 329.739 -48.0205
c-36.6396 -20.5498 -62.7695 -51.9297 -94.2793 -78.9395c-70.4004 100.65 -164.69 153.551 -233.351 122.331c-85.6396 -38.9502 -98.9199 -194 -29.6396 -346.3c69.2598 -152.31 194.85 -244.199 280.489 -205.249c40.9805 18.6396 65.3408 63.8896 72.0713 122.67z" />
    <glyph glyph-name="c" unicode="&#xe7;" horiz-adv-x="597" 
d="M521.623 156.25l74.6592 8.91797c-30.7305 -58.1104 -80.1602 -106.91 -144.62 -136.23c-154.86 -70.4297 -337.521 -1.98926 -407.95 152.881s-1.98926 337.51 152.881 407.939c113.35 51.5498 241.52 28.6396 329.739 -48.0205
c-36.6396 -20.5498 -62.7695 -51.9297 -94.2793 -78.9395c-70.4004 100.65 -164.69 153.551 -233.351 122.331c-85.6396 -38.9502 -98.9199 -194 -29.6396 -346.3c69.2598 -152.31 194.85 -244.199 280.489 -205.249c40.9805 18.6396 65.3408 63.8896 72.0713 122.67z" />
    <glyph glyph-name="d" unicode="d" horiz-adv-x="671" 
d="M616.99 32.2803c19.7598 -20.1904 45.4775 -30.2686 77.1377 -30.2588h-143.56c-31.6602 0 -57.7598 10.0801 -78.3193 30.2705c-20.5898 20.1699 -30.8594 44.8896 -30.8594 74.1797l-0.0302734 4.83984c-5.5498 -5.07031 -11.3994 -9.79004 -17.6191 -14.1602
c-26.3203 -23.0703 -126.021 -101.721 -237.851 -77.7109c-320.59 106.57 -152.26 753.11 253.311 537.46l-2.33008 478.86c0 -120.44 150.44 -84.3008 150.44 -295.771v-293.06c1.7998 -1.70996 3.58008 -3.26953 5.38965 -5.00977
c-1.80957 1.59961 -3.58984 3.09961 -5.38965 4.65918v-340.12c0 -29.29 9.87988 -54.0098 29.6797 -74.1797zM402.269 94.3418c14.6396 8.19043 27.6289 18.0693 39.0293 29.6494l-2.01953 417.59c-345.56 135.32 -376.35 -537.85 -37.0098 -447.239z" />
    <glyph glyph-name="e" unicode="e" horiz-adv-x="604" 
d="M390.003 294.55c-57.1504 -58.1602 -109.422 -111.329 -187.542 -117.899c71.46 -113.98 173.86 -176.381 247.091 -143.081c41.5303 18.8896 65.9805 65.1201 72.3203 125.05l18.9102 -68.3496c-25.1602 -24.8799 -55.0303 -45.8301 -89.1201 -61.3301
c-154.86 -70.4297 -337.521 -1.98926 -407.95 152.881s-1.98926 337.51 152.881 407.939c149.26 67.8896 324.27 6.73926 399.81 -136.421l-0.610352 -0.379883c0.490234 0.169922 0.950195 0.370117 1.44043 0.540039l2.83984 -8.12012
c-16.7998 -5.87012 -32.5303 -12.7197 -47.3906 -20.2695l-72.71 -46.9805c-0.0195312 0.0400391 -0.0292969 0.0703125 -0.0488281 0.110352c-33.8896 -26.6602 -62.8096 -56.0898 -89.9199 -83.6895zM197.511 184.641c76.7695 4.57031 127.659 56.2393 186.339 115.939
c27.7598 28.2598 57.4199 58.4199 92.3398 85.6797c-69.8398 148.45 -193.06 237.271 -277.489 198.86c-85.6396 -38.9502 -98.9199 -194 -29.6396 -346.3c8.66016 -19.0498 18.21 -37.1602 28.4502 -54.1797z" />
    <glyph glyph-name="e" unicode="&#xeb;" horiz-adv-x="604" 
d="M390.003 294.55c-57.1504 -58.1602 -109.422 -111.329 -187.542 -117.899c71.46 -113.98 173.86 -176.381 247.091 -143.081c41.5303 18.8896 65.9805 65.1201 72.3203 125.05l18.9102 -68.3496c-25.1602 -24.8799 -55.0303 -45.8301 -89.1201 -61.3301
c-154.86 -70.4297 -337.521 -1.98926 -407.95 152.881s-1.98926 337.51 152.881 407.939c149.26 67.8896 324.27 6.73926 399.81 -136.421l-0.610352 -0.379883c0.490234 0.169922 0.950195 0.370117 1.44043 0.540039l2.83984 -8.12012
c-16.7998 -5.87012 -32.5303 -12.7197 -47.3906 -20.2695l-72.71 -46.9805c-0.0195312 0.0400391 -0.0292969 0.0703125 -0.0488281 0.110352c-33.8896 -26.6602 -62.8096 -56.0898 -89.9199 -83.6895zM197.511 184.641c76.7695 4.57031 127.659 56.2393 186.339 115.939
c27.7598 28.2598 57.4199 58.4199 92.3398 85.6797c-69.8398 148.45 -193.06 237.271 -277.489 198.86c-85.6396 -38.9502 -98.9199 -194 -29.6396 -346.3c8.66016 -19.0498 18.21 -37.1602 28.4502 -54.1797z" />
    <glyph glyph-name="e" unicode="&#xea;" horiz-adv-x="604" 
d="M390.003 294.55c-57.1504 -58.1602 -109.422 -111.329 -187.542 -117.899c71.46 -113.98 173.86 -176.381 247.091 -143.081c41.5303 18.8896 65.9805 65.1201 72.3203 125.05l18.9102 -68.3496c-25.1602 -24.8799 -55.0303 -45.8301 -89.1201 -61.3301
c-154.86 -70.4297 -337.521 -1.98926 -407.95 152.881s-1.98926 337.51 152.881 407.939c149.26 67.8896 324.27 6.73926 399.81 -136.421l-0.610352 -0.379883c0.490234 0.169922 0.950195 0.370117 1.44043 0.540039l2.83984 -8.12012
c-16.7998 -5.87012 -32.5303 -12.7197 -47.3906 -20.2695l-72.71 -46.9805c-0.0195312 0.0400391 -0.0292969 0.0703125 -0.0488281 0.110352c-33.8896 -26.6602 -62.8096 -56.0898 -89.9199 -83.6895zM197.511 184.641c76.7695 4.57031 127.659 56.2393 186.339 115.939
c27.7598 28.2598 57.4199 58.4199 92.3398 85.6797c-69.8398 148.45 -193.06 237.271 -277.489 198.86c-85.6396 -38.9502 -98.9199 -194 -29.6396 -346.3c8.66016 -19.0498 18.21 -37.1602 28.4502 -54.1797z" />
    <glyph glyph-name="e" unicode="&#xe9;" horiz-adv-x="604" 
d="M390.003 294.55c-57.1504 -58.1602 -109.422 -111.329 -187.542 -117.899c71.46 -113.98 173.86 -176.381 247.091 -143.081c41.5303 18.8896 65.9805 65.1201 72.3203 125.05l18.9102 -68.3496c-25.1602 -24.8799 -55.0303 -45.8301 -89.1201 -61.3301
c-154.86 -70.4297 -337.521 -1.98926 -407.95 152.881s-1.98926 337.51 152.881 407.939c149.26 67.8896 324.27 6.73926 399.81 -136.421l-0.610352 -0.379883c0.490234 0.169922 0.950195 0.370117 1.44043 0.540039l2.83984 -8.12012
c-16.7998 -5.87012 -32.5303 -12.7197 -47.3906 -20.2695l-72.71 -46.9805c-0.0195312 0.0400391 -0.0292969 0.0703125 -0.0488281 0.110352c-33.8896 -26.6602 -62.8096 -56.0898 -89.9199 -83.6895zM197.511 184.641c76.7695 4.57031 127.659 56.2393 186.339 115.939
c27.7598 28.2598 57.4199 58.4199 92.3398 85.6797c-69.8398 148.45 -193.06 237.271 -277.489 198.86c-85.6396 -38.9502 -98.9199 -194 -29.6396 -346.3c8.66016 -19.0498 18.21 -37.1602 28.4502 -54.1797z" />
    <glyph glyph-name="e" unicode="&#xe8;" horiz-adv-x="604" 
d="M390.003 294.55c-57.1504 -58.1602 -109.422 -111.329 -187.542 -117.899c71.46 -113.98 173.86 -176.381 247.091 -143.081c41.5303 18.8896 65.9805 65.1201 72.3203 125.05l18.9102 -68.3496c-25.1602 -24.8799 -55.0303 -45.8301 -89.1201 -61.3301
c-154.86 -70.4297 -337.521 -1.98926 -407.95 152.881s-1.98926 337.51 152.881 407.939c149.26 67.8896 324.27 6.73926 399.81 -136.421l-0.610352 -0.379883c0.490234 0.169922 0.950195 0.370117 1.44043 0.540039l2.83984 -8.12012
c-16.7998 -5.87012 -32.5303 -12.7197 -47.3906 -20.2695l-72.71 -46.9805c-0.0195312 0.0400391 -0.0292969 0.0703125 -0.0488281 0.110352c-33.8896 -26.6602 -62.8096 -56.0898 -89.9199 -83.6895zM197.511 184.641c76.7695 4.57031 127.659 56.2393 186.339 115.939
c27.7598 28.2598 57.4199 58.4199 92.3398 85.6797c-69.8398 148.45 -193.06 237.271 -277.489 198.86c-85.6396 -38.9502 -98.9199 -194 -29.6396 -346.3c8.66016 -19.0498 18.21 -37.1602 28.4502 -54.1797z" />
    <glyph glyph-name="f" unicode="f" horiz-adv-x="370" 
d="M503.469 786.234c-8.47559 69.6611 -170.496 88.791 -223.87 39.6113c-19.7666 -19.7842 -29.6797 -45.1064 -29.6797 -75.9668l0.292969 -97.585h-0.223633v-113.527h125.017v-8.61328h-125.017v-387.411c0 -211.457 -150.434 -175.326 -150.434 -295.77
l3.42773 683.171h-104.983v8.61328h105.026l0.637695 127.558h0.335938v7.58789c0 35.6064 8.89746 67.0693 26.6836 94.3643c52.5996 97.1201 177.031 126.12 270.594 105.569c79.9023 -20.8516 101.563 -65.8711 102.192 -87.6016z" />
    <glyph glyph-name="g" unicode="g" horiz-adv-x="655" 
d="M524.582 -60.3496c171.46 -68.2695 245.354 -309.411 -119.275 -407.711c-56.75 -20.5498 -113.14 -30.9395 -166.659 -30.9395c-29.3203 0 -57.7803 3.12012 -84.9502 9.40039c-71.4697 16.5 -126.38 53.3896 -154.6 103.85
c-47.0703 84.1797 -10.3301 187.46 98.1602 278.05c-44.7695 4.58008 -79.4092 10.7598 -95.0693 22.3896l107.11 90.9297c13.5996 12.8496 28.54 26.5098 44.75 41.0801c-46.4297 30.8096 -85.1094 74.5195 -109.869 128.97
c-70.4297 154.86 -1.98926 337.511 152.881 407.94c133.55 60.75 287.68 18.1396 372.779 -94.0303c38.1904 71.3398 52.3906 140.439 24.6904 201.159l7.83984 3.57031c29.4102 -64.4697 13.8301 -137.399 -26.9795 -212.229
c11.2803 -15.8496 21.2607 -32.9697 29.6211 -51.3398c70.4199 -154.87 1.99023 -337.5 -152.88 -407.94c-97.5098 -44.3496 -206.01 -33.5996 -290.6 19.0703c-14.3203 -12.8701 -27.6904 -25.0303 -40 -36.5498c54.8398 -27.2695 276.83 -15.4092 403.05 -65.6689z
M450.006 27.4287c82.4102 37.4902 97.7705 182.44 37.1104 329.03c-72.2695 -86.1699 -163.42 -170 -243.55 -241.53c66.25 -77.5195 146.22 -114.89 206.439 -87.5zM199.146 578.979c-85.6396 -38.96 -98.9092 -194 -29.6494 -346.31
c19.1904 -42.2002 42.71 -79.7305 68.5098 -111.16c80.9004 72.2305 173.11 157.04 245.36 243.72c-1.23047 2.83984 -2.43066 5.66992 -3.7207 8.5c-69.2598 152.32 -194.85 244.21 -280.5 205.25zM395.025 -462.491c172.02 100.44 206.78 223.689 107.33 282.689
c-96.29 57.1299 -274.88 59.9395 -392.93 70.9199c-110.16 -89.0195 -148.62 -190.739 -102.82 -272.659c65.8203 -117.7 247.5 -129.351 388.42 -80.9502z" />
    <glyph glyph-name="h" unicode="h" horiz-adv-x="707" 
d="M733.883 2.00684l-105.372 0.00976562v1.30957h-41.5312c-55.3555 0 -100.272 44.7441 -100.419 100.1c-0.137695 50.5146 -0.344727 110.323 -0.611328 154.99c0 192.354 -62.9346 297.268 -152.156 322.693c-40.8428 11.6357 -89.7383 8.03516 -146.359 -17.2959
v-457.356c0 -29.2842 9.8877 -54.0029 29.6807 -74.1748c19.7666 -20.1885 45.4766 -30.2744 77.1465 -30.2744h-143.561c-31.6611 0 -57.7588 10.0859 -78.3262 30.2744c-20.585 20.1719 -30.8604 44.8906 -30.8604 74.1748l-4.5127 929.304
c0 -120.443 150.434 -84.3037 150.434 -295.769v-163.189c208.838 121.201 358.643 7.66504 417.279 -143.819c9.66406 -24.9521 23.5996 -93.0889 23.5996 -208.141c0.448242 -47.6816 0.861328 -100.04 1.23145 -141.934
c3.98828 -19.2158 12.9629 -36.1318 27.1826 -50.6279c19.7754 -20.1885 45.4854 -30.2744 77.1553 -30.2744z" />
    <glyph glyph-name="i" unicode="i" horiz-adv-x="270" 
d="M217.971 32.2812c19.7666 -20.1885 45.4844 -30.2754 77.1455 -30.2754h-143.561c-31.6611 0 -57.7588 10.0859 -78.3262 30.2744c-20.585 20.1719 -30.8604 44.8906 -30.8604 74.1748l-4.5127 576.173c0 -120.443 150.434 -84.3037 150.434 -295.769v-280.403
c0 -29.2842 9.8877 -54.0029 29.6807 -74.1748zM178.937 761.818l-76.4688 -76.4688l-76.4688 76.4688l76.4688 76.4688z" />
    <glyph glyph-name="i" unicode="&#xef;" horiz-adv-x="270" 
d="M217.971 32.2812c19.7666 -20.1885 45.4844 -30.2754 77.1455 -30.2754h-143.561c-31.6611 0 -57.7588 10.0859 -78.3262 30.2744c-20.585 20.1719 -30.8604 44.8906 -30.8604 74.1748l-4.5127 576.173c0 -120.443 150.434 -84.3037 150.434 -295.769v-280.403
c0 -29.2842 9.8877 -54.0029 29.6807 -74.1748zM178.937 761.818l-76.4688 -76.4688l-76.4688 76.4688l76.4688 76.4688z" />
    <glyph glyph-name="i" unicode="&#xee;" horiz-adv-x="270" 
d="M217.971 32.2812c19.7666 -20.1885 45.4844 -30.2754 77.1455 -30.2754h-143.561c-31.6611 0 -57.7588 10.0859 -78.3262 30.2744c-20.585 20.1719 -30.8604 44.8906 -30.8604 74.1748l-4.5127 576.173c0 -120.443 150.434 -84.3037 150.434 -295.769v-280.403
c0 -29.2842 9.8877 -54.0029 29.6807 -74.1748zM178.937 761.818l-76.4688 -76.4688l-76.4688 76.4688l76.4688 76.4688z" />
    <glyph glyph-name="i" unicode="&#xed;" horiz-adv-x="270" 
d="M217.971 32.2812c19.7666 -20.1885 45.4844 -30.2754 77.1455 -30.2754h-143.561c-31.6611 0 -57.7588 10.0859 -78.3262 30.2744c-20.585 20.1719 -30.8604 44.8906 -30.8604 74.1748l-4.5127 576.173c0 -120.443 150.434 -84.3037 150.434 -295.769v-280.403
c0 -29.2842 9.8877 -54.0029 29.6807 -74.1748zM178.937 761.818l-76.4688 -76.4688l-76.4688 76.4688l76.4688 76.4688z" />
    <glyph glyph-name="i" unicode="&#xec;" horiz-adv-x="270" 
d="M217.971 32.2812c19.7666 -20.1885 45.4844 -30.2754 77.1455 -30.2754h-143.561c-31.6611 0 -57.7588 10.0859 -78.3262 30.2744c-20.585 20.1719 -30.8604 44.8906 -30.8604 74.1748l-4.5127 576.173c0 -120.443 150.434 -84.3037 150.434 -295.769v-280.403
c0 -29.2842 9.8877 -54.0029 29.6807 -74.1748zM178.937 761.818l-76.4688 -76.4688l-76.4688 76.4688l76.4688 76.4688z" />
    <glyph glyph-name="j" unicode="j" horiz-adv-x="229" 
d="M189.656 761.79l-76.4688 -76.4688l-76.4688 76.4688l76.4688 76.4688zM41.7998 684.256c0 -120.443 150.435 -84.3115 150.443 -295.776l-1.87793 -504.711h-0.335938v-7.59668c0 -35.6572 -8.91406 -67.1553 -26.7256 -94.4932
c-52.6768 -97.249 -177.28 -126.283 -270.972 -105.707c-80.0059 20.8867 -101.702 65.9668 -102.331 87.7227c8.4834 -69.7646 170.734 -88.9111 224.178 -39.6709c19.793 19.8096 29.7236 45.166 29.7236 76.0693l-0.301758 97.7227h0.223633z" />
    <glyph glyph-name="k" unicode="k" horiz-adv-x="618" 
d="M602.277 5.58105l23.1865 -4.66895h-161.243c-42.9102 0 -83.8135 18.1816 -112.563 50.041c-44.0469 53.5469 -61.7725 121.106 -104.924 158.581c-14.0049 11.4893 -30.9375 20.1543 -52.5986 24.7627c-1.97266 -0.25 -3.8584 -0.482422 -5.70996 -0.714844v-128.221
c0 -29.2842 9.8877 -54.0029 29.6807 -74.1748c19.7754 -20.1885 45.4854 -30.2744 77.1553 -30.2744h-143.561c-31.6611 0 -57.7588 10.0859 -78.3262 30.2744c-20.585 20.1719 -30.8604 44.8906 -30.8604 74.1748l-4.51367 929.304
c0 -120.435 150.434 -84.3037 150.434 -295.769v-263.651c67.3193 112.287 298.732 177.427 365.621 126.369c103.02 -86.9736 33.6074 -316.836 -283.358 -358.083c-5.98633 -0.775391 -34.1074 -4.08301 -59.8428 -7.20117
c268.285 -18.5088 294.391 -230.749 391.424 -230.749zM188.434 240.938c245.082 14.5908 341.191 148.918 311.839 227.003c-26.7256 61.0146 -100.073 107.964 -189.751 91.0049c-57.8271 -16.5713 -98.084 -49.7832 -122.088 -101.486v-216.521z" />
    <glyph glyph-name="l" unicode="l" horiz-adv-x="271" 
d="M217.118 32.2812c19.7666 -20.1885 45.4766 -30.2754 77.1465 -30.2754h-143.561c-31.6611 0 -57.7588 10.0859 -78.3262 30.2744c-20.585 20.1719 -30.8604 44.8906 -30.8604 74.1748l-4.51367 929.304c0 -120.443 150.434 -84.3037 150.434 -295.769v-633.534
c0 -29.2842 9.8877 -54.0029 29.6807 -74.1748z" />
    <glyph glyph-name="m" unicode="m" horiz-adv-x="1124" 
d="M1131.08 0l-105.381 0.0166016v1.30957h-41.5312c-55.3555 0 -100.272 44.7441 -100.419 100.1c-0.137695 50.5146 -0.344727 110.323 -0.611328 154.99c0 192.354 -62.9346 297.268 -152.156 322.693c-50.9287 14.5127 -114.354 5.46094 -189.761 -40.1709
c27.3975 -30.998 49.0938 -68.1631 64.4941 -107.955c9.66406 -24.9521 23.5996 -93.0889 23.5996 -208.141c0.448242 -47.6816 0.861328 -100.04 1.23145 -141.934c3.98828 -19.2158 12.9629 -36.1318 27.1826 -50.627c19.7754 -20.1885 45.4854 -30.2744 77.1553 -30.2744
h-105.371v1.30957h-41.5312c-55.3555 0 -100.272 44.7441 -100.419 100.1c-0.137695 50.5146 -0.344727 110.323 -0.611328 154.99c0 192.354 -62.9346 297.268 -152.156 322.693c-50.4287 14.3662 -113.105 5.59863 -187.521 -38.8525
c23.3584 -30.5928 41.1611 -74.0361 41.1611 -146.781v-289.017c0 -29.2842 9.8877 -54.0029 29.6807 -74.1748c19.7754 -20.1885 45.4854 -30.2744 77.1553 -30.2744h-143.569c-31.6611 0 -57.7588 10.0859 -78.3262 30.2744
c-20.585 20.1719 -30.8604 44.8906 -30.8604 74.1748l-4.5127 584.785c0 -76.5947 60.8164 -89.9365 105.113 -143.836c172.5 123.587 309.136 90.083 393.81 -1.73145c233.687 169.063 401.983 50.0928 464.987 -112.692
c9.66406 -24.9521 23.5996 -93.0889 23.5996 -208.141c0.448242 -47.6816 0.861328 -100.04 1.23145 -141.934c3.9873 -19.2158 12.9619 -36.1318 27.1816 -50.627c19.7754 -20.1885 45.4854 -30.2744 77.1553 -30.2744z" />
    <glyph glyph-name="n" unicode="n" horiz-adv-x="708" 
d="M734.883 2.00684l-105.382 0.0078125v1.30957h-41.5312c-55.3555 0 -100.272 44.7441 -100.419 100.1c-0.137695 50.5146 -0.344727 110.323 -0.611328 154.99c0 192.354 -62.9346 297.268 -152.156 322.693c-50.4287 14.3662 -113.105 5.59863 -187.521 -38.8525
c23.3584 -30.5928 41.1611 -74.0361 41.1611 -146.781v-289.017c0 -29.2842 9.8877 -54.0029 29.6807 -74.1748c19.7754 -20.1885 45.4854 -30.2744 77.1553 -30.2744h-143.561c-31.6611 0 -57.7588 10.0859 -78.3262 30.2744
c-20.585 20.1719 -30.8604 44.8906 -30.8604 74.1748l-4.5127 584.785c0 -76.5947 60.8164 -89.9365 105.113 -143.836c232.446 166.54 399.805 47.8105 462.602 -114.423c9.66406 -24.9521 23.5996 -93.0889 23.5996 -208.141
c0.448242 -47.6816 0.861328 -100.04 1.23145 -141.934c3.98828 -19.2158 12.9629 -36.1318 27.1826 -50.6279c19.7754 -20.1885 45.4854 -30.2744 77.1553 -30.2744z" />
    <glyph glyph-name="n" unicode="&#xf1;" horiz-adv-x="708" 
d="M734.883 2.00684l-105.382 0.0078125v1.30957h-41.5312c-55.3555 0 -100.272 44.7441 -100.419 100.1c-0.137695 50.5146 -0.344727 110.323 -0.611328 154.99c0 192.354 -62.9346 297.268 -152.156 322.693c-50.4287 14.3662 -113.105 5.59863 -187.521 -38.8525
c23.3584 -30.5928 41.1611 -74.0361 41.1611 -146.781v-289.017c0 -29.2842 9.8877 -54.0029 29.6807 -74.1748c19.7754 -20.1885 45.4854 -30.2744 77.1553 -30.2744h-143.561c-31.6611 0 -57.7588 10.0859 -78.3262 30.2744
c-20.585 20.1719 -30.8604 44.8906 -30.8604 74.1748l-4.5127 584.785c0 -76.5947 60.8164 -89.9365 105.113 -143.836c232.446 166.54 399.805 47.8105 462.602 -114.423c9.66406 -24.9521 23.5996 -93.0889 23.5996 -208.141
c0.448242 -47.6816 0.861328 -100.04 1.23145 -141.934c3.98828 -19.2158 12.9629 -36.1318 27.1826 -50.6279c19.7754 -20.1885 45.4854 -30.2744 77.1553 -30.2744z" />
    <glyph glyph-name="o" unicode="o" horiz-adv-x="649" 
d="M604.543 430.74c70.4297 -154.87 1.98926 -337.511 -152.881 -407.94c-154.86 -70.4297 -337.511 -1.98926 -407.951 152.881c-70.4297 154.86 -1.98926 337.511 152.881 407.94c154.86 70.4297 337.511 1.98926 407.951 -152.881zM449.553 27.4297
c85.6396 38.96 98.9082 193.989 29.6387 346.299c-69.2598 152.32 -194.859 244.2 -280.499 205.25s-98.9199 -194 -29.6396 -346.3c69.2598 -152.31 194.85 -244.199 280.5 -205.249z" />
    <glyph glyph-name="o" unicode="&#xf8;" horiz-adv-x="649" 
d="M604.543 430.74c70.4297 -154.87 1.98926 -337.511 -152.881 -407.94c-154.86 -70.4297 -337.511 -1.98926 -407.951 152.881c-70.4297 154.86 -1.98926 337.511 152.881 407.94c154.86 70.4297 337.511 1.98926 407.951 -152.881zM449.553 27.4297
c85.6396 38.96 98.9082 193.989 29.6387 346.299c-69.2598 152.32 -194.859 244.2 -280.499 205.25s-98.9199 -194 -29.6396 -346.3c69.2598 -152.31 194.85 -244.199 280.5 -205.249z" />
    <glyph glyph-name="o" unicode="&#xf6;" horiz-adv-x="649" 
d="M604.543 430.74c70.4297 -154.87 1.98926 -337.511 -152.881 -407.94c-154.86 -70.4297 -337.511 -1.98926 -407.951 152.881c-70.4297 154.86 -1.98926 337.511 152.881 407.94c154.86 70.4297 337.511 1.98926 407.951 -152.881zM449.553 27.4297
c85.6396 38.96 98.9082 193.989 29.6387 346.299c-69.2598 152.32 -194.859 244.2 -280.499 205.25s-98.9199 -194 -29.6396 -346.3c69.2598 -152.31 194.85 -244.199 280.5 -205.249z" />
    <glyph glyph-name="o" unicode="&#xf5;" horiz-adv-x="649" 
d="M604.543 430.74c70.4297 -154.87 1.98926 -337.511 -152.881 -407.94c-154.86 -70.4297 -337.511 -1.98926 -407.951 152.881c-70.4297 154.86 -1.98926 337.511 152.881 407.94c154.86 70.4297 337.511 1.98926 407.951 -152.881zM449.553 27.4297
c85.6396 38.96 98.9082 193.989 29.6387 346.299c-69.2598 152.32 -194.859 244.2 -280.499 205.25s-98.9199 -194 -29.6396 -346.3c69.2598 -152.31 194.85 -244.199 280.5 -205.249z" />
    <glyph glyph-name="o" unicode="&#xf4;" horiz-adv-x="649" 
d="M604.543 430.74c70.4297 -154.87 1.98926 -337.511 -152.881 -407.94c-154.86 -70.4297 -337.511 -1.98926 -407.951 152.881c-70.4297 154.86 -1.98926 337.511 152.881 407.94c154.86 70.4297 337.511 1.98926 407.951 -152.881zM449.553 27.4297
c85.6396 38.96 98.9082 193.989 29.6387 346.299c-69.2598 152.32 -194.859 244.2 -280.499 205.25s-98.9199 -194 -29.6396 -346.3c69.2598 -152.31 194.85 -244.199 280.5 -205.249z" />
    <glyph glyph-name="o" unicode="&#xf3;" horiz-adv-x="649" 
d="M604.543 430.74c70.4297 -154.87 1.98926 -337.511 -152.881 -407.94c-154.86 -70.4297 -337.511 -1.98926 -407.951 152.881c-70.4297 154.86 -1.98926 337.511 152.881 407.94c154.86 70.4297 337.511 1.98926 407.951 -152.881zM449.553 27.4297
c85.6396 38.96 98.9082 193.989 29.6387 346.299c-69.2598 152.32 -194.859 244.2 -280.499 205.25s-98.9199 -194 -29.6396 -346.3c69.2598 -152.31 194.85 -244.199 280.5 -205.249z" />
    <glyph glyph-name="o" unicode="&#xf2;" horiz-adv-x="649" 
d="M604.543 430.74c70.4297 -154.87 1.98926 -337.511 -152.881 -407.94c-154.86 -70.4297 -337.511 -1.98926 -407.951 152.881c-70.4297 154.86 -1.98926 337.511 152.881 407.94c154.86 70.4297 337.511 1.98926 407.951 -152.881zM449.553 27.4297
c85.6396 38.96 98.9082 193.989 29.6387 346.299c-69.2598 152.32 -194.859 244.2 -280.499 205.25s-98.9199 -194 -29.6396 -346.3c69.2598 -152.31 194.85 -244.199 280.5 -205.249z" />
    <glyph glyph-name="p" unicode="p" horiz-adv-x="669" 
d="M481.251 577.574c320.471 -106.525 152.389 -752.636 -252.851 -537.717l-0.171875 -161.949v-35.1406c0 -211.457 -150.434 -175.326 -150.434 -295.77l1.7832 367.498h0.258789v235.599c-1.7998 1.70508 -3.58301 3.26367 -5.3916 5.00391
c1.80859 -1.59375 3.5918 -3.10059 5.3916 -4.65918v340.117c0 29.2842 -9.8877 54.0029 -29.6807 74.1748c-19.7754 20.1885 -45.4854 30.2744 -77.1553 30.2744h143.561c31.6611 0 57.7588 -10.0859 78.335 -30.2656c20.585 -20.1719 30.8604 -44.8906 30.8604 -74.1748
l0.0253906 -4.84863c5.5293 5.04688 11.3779 9.75781 17.5791 14.1162c26.2695 23.0312 126.008 101.763 237.89 77.7412zM228.306 55.2666c345.242 -134.62 375.713 538.216 36.2422 447.211c-14.5039 -8.14746 -27.3799 -17.958 -38.6885 -29.4395z" />
    <glyph glyph-name="q" unicode="q" horiz-adv-x="672" 
d="M700.587 618.03c-31.6602 0 -60.7607 -5.16016 -80.5303 -25.3604c-19.79 -20.1699 -29.6797 -44.8896 -29.6797 -74.1699l1.75977 -335.94c0.19043 0.160156 0.370117 0.320312 0.560547 0.480469c-0.19043 -0.179688 -0.370117 -0.330078 -0.560547 -0.509766
l1.62012 -311.09c0 -211.45 -150.43 -175.32 -150.43 -295.771l0.589844 495c-408.97 -223.21 -579.859 427.87 -258.029 534.86c111.86 24.0098 211.58 -54.7002 237.87 -77.75c7.37012 -5.16992 14.2598 -10.8398 20.6895 -17l0.00976562 7.71973
c0 29.2803 10.2598 54 30.8594 74.1699c20.5703 20.1904 46.6504 30.2803 78.3203 30.2803zM443.926 85.2305l0.499023 412.56c-12.1299 12.9805 -26.1895 23.9004 -42.1895 32.8506c-340.84 90.9805 -308.26 -588.67 41.6904 -445.41z" />
    <glyph glyph-name="r" unicode="r" horiz-adv-x="589" 
d="M485.242 604.225c45.0713 -14.9863 80.3691 -40.7227 106.811 -73.1758l-104.596 -100.857h-3.38477c-34.1162 77.6289 -105.285 128.471 -215.351 99.0312c-14.5215 -8.13965 -27.415 -17.9502 -38.7412 -29.4229l3.53125 -274.942h-1.2832v-36.752
c0 -211.457 -150.434 -175.326 -150.434 -295.77l1.7832 367.498h0.258789v257.372c0 29.2842 -9.8877 54.0029 -29.6807 74.1748c-19.7754 20.1885 -45.4854 30.2744 -77.1553 30.2744h143.561c31.6611 0 57.7588 -10.0859 78.3262 -30.2744
c20.585 -20.1719 30.8604 -44.8906 30.8604 -74.1748l0.0605469 -4.82324c5.52051 5.03906 11.3516 9.74219 17.5439 14.0918c26.2695 23.04 126.008 101.771 237.89 77.75z" />
    <glyph glyph-name="s" unicode="s" horiz-adv-x="653" 
d="M329.075 405.972c145.387 -24.1592 243.017 -68.0566 282.326 -126.935c30.8086 -46.1309 21.3604 -106.99 6.47754 -135.517l-0.964844 -1.84277l-0.344727 0.396484c-20.6973 -34.9424 -56.915 -67.8096 -98.4385 -90.2031
c2.23926 0.913086 4.4873 1.74023 6.72656 2.71387c-137.204 -82.0381 -357.48 -86.8184 -524.856 15.8994l82.71 74.9756c-0.620117 1.68848 -0.818359 2.61914 -0.818359 2.61914c0.464844 -0.671875 1.0332 -1.31738 1.50684 -1.98926l39.2236 35.5547
c48.2148 -82.3652 171.725 -161.975 305.492 -151.303c17.6396 3.14355 34.9775 7.72559 51.7295 13.9531c10.999 4.1084 21.8174 9.06055 32.291 14.7021c80.6172 43.4785 72.7188 109.488 -14.6602 143.837c-54.2793 21.334 -111.702 33.6328 -151.804 40.3076
c-127.506 21.2139 -216.322 62.6338 -256.863 119.781c-26.4766 37.3369 -39.9648 184.593 101.667 246.313c76.6123 28.457 164.714 24.4004 242.05 1.05957c125.129 -39.8955 201.448 -121.038 201.448 -188.771l-108.463 -0.344727
c14.3926 40.291 -8.75 115.25 -83.9756 164.809c-30.9551 20.3955 -69.7129 31.5664 -109.875 34.0039c-46.458 2.8252 -93.4072 -2.52344 -136.55 -18.5518c-0.5 -0.180664 -1 -0.370117 -1.49121 -0.55957c-89.377 -34.1328 -93.5801 -119.1 -5.86523 -155.834
c50.3682 -21.0928 103.812 -32.8408 141.321 -39.0762z" />
    <glyph glyph-name="t" unicode="t" horiz-adv-x="373" 
d="M252.098 528.138l120.891 0.000976562v-8.61328h-119.35c2.79883 -16.8125 4.41797 -27.0361 4.41797 -48.5518v-366.524c0 -29.2842 9.8877 -54.0029 29.6807 -74.1748c19.7754 -20.1885 45.4854 -30.2744 77.1553 -30.2744h-143.561
c-31.6611 0 -57.7588 10.0859 -78.3262 30.2744c-20.585 20.1719 -30.8604 44.8906 -30.8604 74.1748l-2.88574 415.075h-113.261v8.61328h113.2l-1.56738 238.604c0 -106.06 116.603 -99.4102 144.466 -238.604z" />
    <glyph glyph-name="u" unicode="u" horiz-adv-x="708" 
d="M662.468 30.3613c19.7754 -20.1885 45.4873 -30.2744 77.1572 -30.2744h-143.561c-31.6611 0 -57.7588 10.0859 -78.3262 30.2744c-14.3496 14.0566 -23.5742 30.3867 -27.915 48.8701c-231.215 -150.038 -418.788 -60.9971 -450.483 137.971
c-5.85645 36.7949 -5.83105 147.402 -5.83105 147.402l-2.50684 324.717c0 -120.443 150.434 -84.3037 150.434 -295.769v-9.51758c-16.21 -243.281 61.4961 -307.043 149.719 -332.185c43.4521 -12.3857 95.9736 -0.947266 157.289 34.082
c-0.990234 5.99414 -1.57617 12.1699 -1.57617 18.6035l-4.51367 584.785c0 -120.435 150.434 -84.3037 150.434 -295.769v-289.017c0 -29.2842 9.8877 -54.0029 29.6807 -74.1748z" />
    <glyph glyph-name="u" unicode="&#xfc;" horiz-adv-x="708" 
d="M662.468 30.3613c19.7754 -20.1885 45.4873 -30.2744 77.1572 -30.2744h-143.561c-31.6611 0 -57.7588 10.0859 -78.3262 30.2744c-14.3496 14.0566 -23.5742 30.3867 -27.915 48.8701c-231.215 -150.038 -418.788 -60.9971 -450.483 137.971
c-5.85645 36.7949 -5.83105 147.402 -5.83105 147.402l-2.50684 324.717c0 -120.443 150.434 -84.3037 150.434 -295.769v-9.51758c-16.21 -243.281 61.4961 -307.043 149.719 -332.185c43.4521 -12.3857 95.9736 -0.947266 157.289 34.082
c-0.990234 5.99414 -1.57617 12.1699 -1.57617 18.6035l-4.51367 584.785c0 -120.435 150.434 -84.3037 150.434 -295.769v-289.017c0 -29.2842 9.8877 -54.0029 29.6807 -74.1748z" />
    <glyph glyph-name="u" unicode="&#xfb;" horiz-adv-x="708" 
d="M662.468 30.3613c19.7754 -20.1885 45.4873 -30.2744 77.1572 -30.2744h-143.561c-31.6611 0 -57.7588 10.0859 -78.3262 30.2744c-14.3496 14.0566 -23.5742 30.3867 -27.915 48.8701c-231.215 -150.038 -418.788 -60.9971 -450.483 137.971
c-5.85645 36.7949 -5.83105 147.402 -5.83105 147.402l-2.50684 324.717c0 -120.443 150.434 -84.3037 150.434 -295.769v-9.51758c-16.21 -243.281 61.4961 -307.043 149.719 -332.185c43.4521 -12.3857 95.9736 -0.947266 157.289 34.082
c-0.990234 5.99414 -1.57617 12.1699 -1.57617 18.6035l-4.51367 584.785c0 -120.435 150.434 -84.3037 150.434 -295.769v-289.017c0 -29.2842 9.8877 -54.0029 29.6807 -74.1748z" />
    <glyph glyph-name="u" unicode="&#xfa;" horiz-adv-x="708" 
d="M662.468 30.3613c19.7754 -20.1885 45.4873 -30.2744 77.1572 -30.2744h-143.561c-31.6611 0 -57.7588 10.0859 -78.3262 30.2744c-14.3496 14.0566 -23.5742 30.3867 -27.915 48.8701c-231.215 -150.038 -418.788 -60.9971 -450.483 137.971
c-5.85645 36.7949 -5.83105 147.402 -5.83105 147.402l-2.50684 324.717c0 -120.443 150.434 -84.3037 150.434 -295.769v-9.51758c-16.21 -243.281 61.4961 -307.043 149.719 -332.185c43.4521 -12.3857 95.9736 -0.947266 157.289 34.082
c-0.990234 5.99414 -1.57617 12.1699 -1.57617 18.6035l-4.51367 584.785c0 -120.435 150.434 -84.3037 150.434 -295.769v-289.017c0 -29.2842 9.8877 -54.0029 29.6807 -74.1748z" />
    <glyph glyph-name="u" unicode="&#xf9;" horiz-adv-x="708" 
d="M662.468 30.3613c19.7754 -20.1885 45.4873 -30.2744 77.1572 -30.2744h-143.561c-31.6611 0 -57.7588 10.0859 -78.3262 30.2744c-14.3496 14.0566 -23.5742 30.3867 -27.915 48.8701c-231.215 -150.038 -418.788 -60.9971 -450.483 137.971
c-5.85645 36.7949 -5.83105 147.402 -5.83105 147.402l-2.50684 324.717c0 -120.443 150.434 -84.3037 150.434 -295.769v-9.51758c-16.21 -243.281 61.4961 -307.043 149.719 -332.185c43.4521 -12.3857 95.9736 -0.947266 157.289 34.082
c-0.990234 5.99414 -1.57617 12.1699 -1.57617 18.6035l-4.51367 584.785c0 -120.435 150.434 -84.3037 150.434 -295.769v-289.017c0 -29.2842 9.8877 -54.0029 29.6807 -74.1748z" />
    <glyph glyph-name="v" unicode="v" horiz-adv-x="656" 
d="M652.368 620.176l7.6748 -3.9209l-315.191 -616.877l-3.87598 1.98145l-0.310547 -0.645508c-0.241211 0.405273 -0.5 0.792969 -0.75 1.18945l-2.73047 1.39551l0.827148 1.61035c-118.747 191.466 -332.013 303.692 -332.013 614.311l7.45898 -0.0253906v-0.353516
h142.665c-9.73242 -273.436 199.666 -365.688 252.464 -475.788z" />
    <glyph glyph-name="w" unicode="w" horiz-adv-x="1129" 
d="M1125.59 619.686l7.66602 -3.91406l-314.7 -616.386l-3.87598 1.98145l-0.310547 -0.645508c-0.241211 0.405273 -0.516602 0.792969 -0.766602 1.19824l-2.7041 1.38672l0.80957 1.57617c-82.5723 133.147 -210.604 228.209 -281.109 378.065l-185.704 -383.483
l-3.91895 1.89453l-0.310547 -0.645508c-0.232422 0.387695 -0.491211 0.757812 -0.723633 1.14551l-2.79883 1.35254l0.84375 1.74023c-118.756 191.449 -331.987 303.676 -331.987 614.276l7.45898 -0.378906h142.665c-9.62109 -270.326 194.876 -363.57 250.542 -472.051
l119.178 246.106c-0.28418 0.628906 -0.611328 1.22363 -0.886719 1.85254l102.192 224.092l2.6875 -0.00878906c-9.72363 -273.393 199.597 -365.654 252.438 -475.736z" />
    <glyph glyph-name="x" unicode="x" horiz-adv-x="625" 
d="M358.134 359.565c123.579 -82.1328 257.477 -167.984 257.468 -341.053l-154.388 0.0771484c0 118.626 -89.6436 188.038 -189.192 256.003l-255.142 -251.782l-6.05469 6.12402l253.944 250.603c-122.407 83.1494 -256.77 165.851 -256.77 335.715l5.05566 -0.0175781
v-0.180664h140.899c0 -114.742 93.8125 -181.958 196.857 -250.612l260.844 257.415l6.05469 -6.12402z" />
    <glyph glyph-name="y" unicode="y" horiz-adv-x="655" 
d="M651.669 620.18l7.67188 -3.9209l-297.78 -582.82c-142.2 -371.44 -282.62 -424.53 -423.94 -304.57c-113.95 153.84 176.77 309.79 389.199 292.44c-120.37 181.72 -321.521 296.26 -321.521 597.91l7.45996 -0.0302734v-0.349609h142.66
c-9.73047 -273.43 199.67 -365.689 252.47 -475.789zM112.94 -257.211c93.8604 -14.8604 156.11 101.75 225.69 259.41l-2.15039 1.09961l0.820312 1.61035c-3.23047 5.20996 -6.5 10.3799 -9.86035 15.4795c-196.33 4.61035 -361.311 -91.5996 -324.32 -190.89
c17.4199 -46.7598 60.5303 -78.9102 109.82 -86.71z" />
    <glyph glyph-name="y" unicode="&#xff;" horiz-adv-x="655" 
d="M651.669 620.18l7.67188 -3.9209l-297.78 -582.82c-142.2 -371.44 -282.62 -424.53 -423.94 -304.57c-113.95 153.84 176.77 309.79 389.199 292.44c-120.37 181.72 -321.521 296.26 -321.521 597.91l7.45996 -0.0302734v-0.349609h142.66
c-9.73047 -273.43 199.67 -365.689 252.47 -475.789zM112.94 -257.211c93.8604 -14.8604 156.11 101.75 225.69 259.41l-2.15039 1.09961l0.820312 1.61035c-3.23047 5.20996 -6.5 10.3799 -9.86035 15.4795c-196.33 4.61035 -361.311 -91.5996 -324.32 -190.89
c17.4199 -46.7598 60.5303 -78.9102 109.82 -86.71z" />
    <glyph glyph-name="y" unicode="&#xfd;" horiz-adv-x="655" 
d="M651.669 620.18l7.67188 -3.9209l-297.78 -582.82c-142.2 -371.44 -282.62 -424.53 -423.94 -304.57c-113.95 153.84 176.77 309.79 389.199 292.44c-120.37 181.72 -321.521 296.26 -321.521 597.91l7.45996 -0.0302734v-0.349609h142.66
c-9.73047 -273.43 199.67 -365.689 252.47 -475.789zM112.94 -257.211c93.8604 -14.8604 156.11 101.75 225.69 259.41l-2.15039 1.09961l0.820312 1.61035c-3.23047 5.20996 -6.5 10.3799 -9.86035 15.4795c-196.33 4.61035 -361.311 -91.5996 -324.32 -190.89
c17.4199 -46.7598 60.5303 -78.9102 109.82 -86.71z" />
    <glyph glyph-name="z" unicode="z" horiz-adv-x="625" 
d="M557.276 614.75c18.707 3.81543 38.5273 5.9248 59.6982 5.93359l-0.0175781 -5.05566h-0.180664v-149.504c-237.425 0 -278.888 -394.086 -544.167 -447.107l531.187 -4.99512l-0.0859375 -8.61328l-592.709 5.57227l0.0859375 8.61328l0.53418 -0.00878906
l0.0771484 156.497c238.148 0 284.874 354.406 514.202 430.355l-514.892 4.84082l0.0859375 8.61328z" />
    <glyph glyph-name="braceleft" unicode="{" horiz-adv-x="633" 
d="M453.988 1067.05l0.000976562 -1.10938h136.119s-0.0693359 -0.0859375 -0.0869141 -0.103516c-4.61621 -0.207031 -9.17285 -0.568359 -13.6777 -1.02441h-73.8906c-93.459 0 -169.228 -73.2959 -169.228 -163.715v-258.923
c-9.25879 -75.6738 -64.959 -107.835 -133.269 -112.072h-3.97949s0.0771484 -0.0859375 0.0859375 -0.103516c0.421875 -0.0175781 0.827148 -0.0693359 1.24023 -0.0869141c-0.577148 -0.0253906 -1.14551 -0.0947266 -1.73145 -0.120117
c-0.00878906 -0.0175781 -0.0859375 -0.103516 -0.0859375 -0.103516h5.03906c65.1914 -4.06543 118.807 -33.6426 131.58 -102.158v-261.584c0 -81.4873 61.6514 -154.241 142.286 -167.617h-21.7822v0.0341797h-104.062c-93.2959 0 -168.927 79.5664 -168.927 169.821
v261.584c-12.7734 68.5156 -66.3887 98.0928 -131.58 102.158h-5.03906s0.0693359 0.0859375 0.0869141 0.103516c0.585938 0.0253906 1.1543 0.0947266 1.73145 0.120117c-0.413086 0.0175781 -0.818359 0.0693359 -1.23145 0.0869141
c-0.0175781 0.0175781 -0.0947266 0.103516 -0.0947266 0.103516h3.98828c68.3096 4.22852 124.019 36.3975 133.269 112.071v258.923c0 90.4189 75.7598 163.715 169.219 163.715h104.019z" />
    <glyph glyph-name="braceright" unicode="}" horiz-adv-x="633" 
d="M590.026 532.033c0.00878906 -0.0175781 0.0888672 -0.105469 0.0888672 -0.105469h-5.03906c-65.1826 -4.06543 -118.807 -33.6426 -131.58 -102.158v-261.593c0 -90.2549 -75.6309 -169.821 -168.927 -169.821h-104.062v-0.0341797h-21.7822
c80.6348 13.376 142.286 86.1299 142.286 167.617v261.584c12.7734 68.5156 66.3887 98.1016 131.58 102.158h5.03906s-0.0693359 0.0859375 -0.0869141 0.103516c-0.585938 0.0253906 -1.14551 0.0947266 -1.73145 0.120117
c0.421875 0.0175781 0.827148 0.0693359 1.24023 0.0869141c0.00878906 0.0175781 0.0859375 0.103516 0.0859375 0.103516h-3.97949c-68.3096 4.22852 -124.019 36.3975 -133.269 112.071v258.923c0 90.4189 -75.7686 163.715 -169.228 163.715h-73.8906
c-4.50488 0.464844 -9.05273 0.818359 -13.6777 1.02539c-0.0175781 0.0175781 -0.0947266 0.103516 -0.0947266 0.103516h136.128v1.12012h104.019c93.459 0 169.228 -73.2959 169.228 -163.715v-258.923c9.25879 -75.6738 64.959 -107.843 133.269 -112.071h3.9873
s-0.0771484 -0.0859375 -0.0947266 -0.103516c-0.421875 -0.0175781 -0.827148 -0.0693359 -1.24023 -0.0869141c0.577148 -0.0253906 1.14551 -0.0947266 1.73145 -0.120117z" />
    <glyph glyph-name="nonbreakingspace" unicode="&#xa0;" horiz-adv-x="309" 
 />
    <glyph glyph-name="softhyphen" unicode="&#xad;" 
 />
    </font>
</defs>
</svg>
